%TF.GenerationSoftware,KiCad,Pcbnew,(6.0.1)*%
%TF.CreationDate,2022-02-09T02:20:10+01:00*%
%TF.ProjectId,choc660,63686f63-3636-4302-9e6b-696361645f70,rev?*%
%TF.SameCoordinates,Original*%
%TF.FileFunction,Legend,Top*%
%TF.FilePolarity,Positive*%
%FSLAX46Y46*%
G04 Gerber Fmt 4.6, Leading zero omitted, Abs format (unit mm)*
G04 Created by KiCad (PCBNEW (6.0.1)) date 2022-02-09 02:20:10*
%MOMM*%
%LPD*%
G01*
G04 APERTURE LIST*
%ADD10C,0.150000*%
%ADD11C,0.381000*%
%ADD12R,1.752600X1.752600*%
%ADD13C,1.752600*%
%ADD14C,1.200000*%
%ADD15C,1.700000*%
%ADD16C,3.400000*%
G04 APERTURE END LIST*
D10*
%TO.C,U1*%
X337434690Y-120359607D02*
X337548976Y-120397702D01*
X337587071Y-120435797D01*
X337625166Y-120511988D01*
X337625166Y-120626273D01*
X337587071Y-120702464D01*
X337548976Y-120740559D01*
X337472785Y-120778654D01*
X337168023Y-120778654D01*
X337168023Y-119978654D01*
X337434690Y-119978654D01*
X337510880Y-120016750D01*
X337548976Y-120054845D01*
X337587071Y-120131035D01*
X337587071Y-120207226D01*
X337548976Y-120283416D01*
X337510880Y-120321511D01*
X337434690Y-120359607D01*
X337168023Y-120359607D01*
X337929928Y-120054845D02*
X337968023Y-120016750D01*
X338044214Y-119978654D01*
X338234690Y-119978654D01*
X338310880Y-120016750D01*
X338348976Y-120054845D01*
X338387071Y-120131035D01*
X338387071Y-120207226D01*
X338348976Y-120321511D01*
X337891833Y-120778654D01*
X338387071Y-120778654D01*
X326226976Y-99696750D02*
X326150785Y-99658654D01*
X326036500Y-99658654D01*
X325922214Y-99696750D01*
X325846023Y-99772940D01*
X325807928Y-99849130D01*
X325769833Y-100001511D01*
X325769833Y-100115797D01*
X325807928Y-100268178D01*
X325846023Y-100344369D01*
X325922214Y-100420559D01*
X326036500Y-100458654D01*
X326112690Y-100458654D01*
X326226976Y-100420559D01*
X326265071Y-100382464D01*
X326265071Y-100115797D01*
X326112690Y-100115797D01*
X326607928Y-100458654D02*
X326607928Y-99658654D01*
X327065071Y-100458654D01*
X327065071Y-99658654D01*
X327446023Y-100458654D02*
X327446023Y-99658654D01*
X327636500Y-99658654D01*
X327750785Y-99696750D01*
X327826976Y-99772940D01*
X327865071Y-99849130D01*
X327903166Y-100001511D01*
X327903166Y-100115797D01*
X327865071Y-100268178D01*
X327826976Y-100344369D01*
X327750785Y-100420559D01*
X327636500Y-100458654D01*
X327446023Y-100458654D01*
X337434690Y-115279607D02*
X337548976Y-115317702D01*
X337587071Y-115355797D01*
X337625166Y-115431988D01*
X337625166Y-115546273D01*
X337587071Y-115622464D01*
X337548976Y-115660559D01*
X337472785Y-115698654D01*
X337168023Y-115698654D01*
X337168023Y-114898654D01*
X337434690Y-114898654D01*
X337510880Y-114936750D01*
X337548976Y-114974845D01*
X337587071Y-115051035D01*
X337587071Y-115127226D01*
X337548976Y-115203416D01*
X337510880Y-115241511D01*
X337434690Y-115279607D01*
X337168023Y-115279607D01*
X338387071Y-115698654D02*
X337929928Y-115698654D01*
X338158500Y-115698654D02*
X338158500Y-114898654D01*
X338082309Y-115012940D01*
X338006119Y-115089130D01*
X337929928Y-115127226D01*
X326062491Y-121922452D02*
X326015351Y-121828171D01*
X326015351Y-121781030D01*
X326038921Y-121710320D01*
X326109632Y-121639609D01*
X326180342Y-121616039D01*
X326227483Y-121616039D01*
X326298193Y-121639609D01*
X326486755Y-121828171D01*
X325991780Y-122323146D01*
X325826789Y-122158154D01*
X325803219Y-122087443D01*
X325803219Y-122040303D01*
X325826789Y-121969592D01*
X325873929Y-121922452D01*
X325944640Y-121898882D01*
X325991780Y-121898882D01*
X326062491Y-121922452D01*
X326227483Y-122087443D01*
X325261103Y-121592469D02*
X325496806Y-121828171D01*
X325756078Y-121616039D01*
X325708938Y-121616039D01*
X325638227Y-121592469D01*
X325520376Y-121474617D01*
X325496806Y-121403907D01*
X325496806Y-121356766D01*
X325520376Y-121286056D01*
X325638227Y-121168205D01*
X325708938Y-121144634D01*
X325756078Y-121144634D01*
X325826789Y-121168205D01*
X325944640Y-121286056D01*
X325968210Y-121356766D01*
X325968210Y-121403907D01*
X337434690Y-94959607D02*
X337548976Y-94997702D01*
X337587071Y-95035797D01*
X337625166Y-95111988D01*
X337625166Y-95226273D01*
X337587071Y-95302464D01*
X337548976Y-95340559D01*
X337472785Y-95378654D01*
X337168023Y-95378654D01*
X337168023Y-94578654D01*
X337434690Y-94578654D01*
X337510880Y-94616750D01*
X337548976Y-94654845D01*
X337587071Y-94731035D01*
X337587071Y-94807226D01*
X337548976Y-94883416D01*
X337510880Y-94921511D01*
X337434690Y-94959607D01*
X337168023Y-94959607D01*
X338120404Y-94578654D02*
X338196595Y-94578654D01*
X338272785Y-94616750D01*
X338310880Y-94654845D01*
X338348976Y-94731035D01*
X338387071Y-94883416D01*
X338387071Y-95073892D01*
X338348976Y-95226273D01*
X338310880Y-95302464D01*
X338272785Y-95340559D01*
X338196595Y-95378654D01*
X338120404Y-95378654D01*
X338044214Y-95340559D01*
X338006119Y-95302464D01*
X337968023Y-95226273D01*
X337929928Y-95073892D01*
X337929928Y-94883416D01*
X337968023Y-94731035D01*
X338006119Y-94654845D01*
X338044214Y-94616750D01*
X338120404Y-94578654D01*
X337491833Y-112739607D02*
X337225166Y-112739607D01*
X337225166Y-113158654D02*
X337225166Y-112358654D01*
X337606119Y-112358654D01*
X337834690Y-112358654D02*
X338368023Y-112358654D01*
X338025166Y-113158654D01*
X326284119Y-117819607D02*
X326550785Y-117819607D01*
X326665071Y-118238654D02*
X326284119Y-118238654D01*
X326284119Y-117438654D01*
X326665071Y-117438654D01*
X327350785Y-117438654D02*
X327198404Y-117438654D01*
X327122214Y-117476750D01*
X327084119Y-117514845D01*
X327007928Y-117629130D01*
X326969833Y-117781511D01*
X326969833Y-118086273D01*
X327007928Y-118162464D01*
X327046023Y-118200559D01*
X327122214Y-118238654D01*
X327274595Y-118238654D01*
X327350785Y-118200559D01*
X327388880Y-118162464D01*
X327426976Y-118086273D01*
X327426976Y-117895797D01*
X327388880Y-117819607D01*
X327350785Y-117781511D01*
X327274595Y-117743416D01*
X327122214Y-117743416D01*
X327046023Y-117781511D01*
X327007928Y-117819607D01*
X326969833Y-117895797D01*
X326246023Y-115698654D02*
X326246023Y-114898654D01*
X326436500Y-114898654D01*
X326550785Y-114936750D01*
X326626976Y-115012940D01*
X326665071Y-115089130D01*
X326703166Y-115241511D01*
X326703166Y-115355797D01*
X326665071Y-115508178D01*
X326626976Y-115584369D01*
X326550785Y-115660559D01*
X326436500Y-115698654D01*
X326246023Y-115698654D01*
X326969833Y-114898654D02*
X327503166Y-114898654D01*
X327160309Y-115698654D01*
X327514166Y-121536750D02*
X327614166Y-121570083D01*
X327647500Y-121603416D01*
X327680833Y-121670083D01*
X327680833Y-121770083D01*
X327647500Y-121836750D01*
X327614166Y-121870083D01*
X327547500Y-121903416D01*
X327280833Y-121903416D01*
X327280833Y-121203416D01*
X327514166Y-121203416D01*
X327580833Y-121236750D01*
X327614166Y-121270083D01*
X327647500Y-121336750D01*
X327647500Y-121403416D01*
X327614166Y-121470083D01*
X327580833Y-121503416D01*
X327514166Y-121536750D01*
X327280833Y-121536750D01*
X327914166Y-121203416D02*
X328380833Y-121203416D01*
X328080833Y-121903416D01*
X337148976Y-97156750D02*
X337072785Y-97118654D01*
X336958500Y-97118654D01*
X336844214Y-97156750D01*
X336768023Y-97232940D01*
X336729928Y-97309130D01*
X336691833Y-97461511D01*
X336691833Y-97575797D01*
X336729928Y-97728178D01*
X336768023Y-97804369D01*
X336844214Y-97880559D01*
X336958500Y-97918654D01*
X337034690Y-97918654D01*
X337148976Y-97880559D01*
X337187071Y-97842464D01*
X337187071Y-97575797D01*
X337034690Y-97575797D01*
X337529928Y-97918654D02*
X337529928Y-97118654D01*
X337987071Y-97918654D01*
X337987071Y-97118654D01*
X338368023Y-97918654D02*
X338368023Y-97118654D01*
X338558500Y-97118654D01*
X338672785Y-97156750D01*
X338748976Y-97232940D01*
X338787071Y-97309130D01*
X338825166Y-97461511D01*
X338825166Y-97575797D01*
X338787071Y-97728178D01*
X338748976Y-97804369D01*
X338672785Y-97880559D01*
X338558500Y-97918654D01*
X338368023Y-97918654D01*
X326246023Y-105538654D02*
X326246023Y-104738654D01*
X326436500Y-104738654D01*
X326550785Y-104776750D01*
X326626976Y-104852940D01*
X326665071Y-104929130D01*
X326703166Y-105081511D01*
X326703166Y-105195797D01*
X326665071Y-105348178D01*
X326626976Y-105424369D01*
X326550785Y-105500559D01*
X326436500Y-105538654D01*
X326246023Y-105538654D01*
X327465071Y-105538654D02*
X327007928Y-105538654D01*
X327236500Y-105538654D02*
X327236500Y-104738654D01*
X327160309Y-104852940D01*
X327084119Y-104929130D01*
X327007928Y-104967226D01*
X326703166Y-113082464D02*
X326665071Y-113120559D01*
X326550785Y-113158654D01*
X326474595Y-113158654D01*
X326360309Y-113120559D01*
X326284119Y-113044369D01*
X326246023Y-112968178D01*
X326207928Y-112815797D01*
X326207928Y-112701511D01*
X326246023Y-112549130D01*
X326284119Y-112472940D01*
X326360309Y-112396750D01*
X326474595Y-112358654D01*
X326550785Y-112358654D01*
X326665071Y-112396750D01*
X326703166Y-112434845D01*
X327388880Y-112358654D02*
X327236500Y-112358654D01*
X327160309Y-112396750D01*
X327122214Y-112434845D01*
X327046023Y-112549130D01*
X327007928Y-112701511D01*
X327007928Y-113006273D01*
X327046023Y-113082464D01*
X327084119Y-113120559D01*
X327160309Y-113158654D01*
X327312690Y-113158654D01*
X327388880Y-113120559D01*
X327426976Y-113082464D01*
X327465071Y-113006273D01*
X327465071Y-112815797D01*
X327426976Y-112739607D01*
X327388880Y-112701511D01*
X327312690Y-112663416D01*
X327160309Y-112663416D01*
X327084119Y-112701511D01*
X327046023Y-112739607D01*
X327007928Y-112815797D01*
X336691833Y-102198654D02*
X336958500Y-102998654D01*
X337225166Y-102198654D01*
X337948976Y-102922464D02*
X337910880Y-102960559D01*
X337796595Y-102998654D01*
X337720404Y-102998654D01*
X337606119Y-102960559D01*
X337529928Y-102884369D01*
X337491833Y-102808178D01*
X337453738Y-102655797D01*
X337453738Y-102541511D01*
X337491833Y-102389130D01*
X337529928Y-102312940D01*
X337606119Y-102236750D01*
X337720404Y-102198654D01*
X337796595Y-102198654D01*
X337910880Y-102236750D01*
X337948976Y-102274845D01*
X338748976Y-102922464D02*
X338710880Y-102960559D01*
X338596595Y-102998654D01*
X338520404Y-102998654D01*
X338406119Y-102960559D01*
X338329928Y-102884369D01*
X338291833Y-102808178D01*
X338253738Y-102655797D01*
X338253738Y-102541511D01*
X338291833Y-102389130D01*
X338329928Y-102312940D01*
X338406119Y-102236750D01*
X338520404Y-102198654D01*
X338596595Y-102198654D01*
X338710880Y-102236750D01*
X338748976Y-102274845D01*
X326246023Y-97918654D02*
X326246023Y-97118654D01*
X326436500Y-97118654D01*
X326550785Y-97156750D01*
X326626976Y-97232940D01*
X326665071Y-97309130D01*
X326703166Y-97461511D01*
X326703166Y-97575797D01*
X326665071Y-97728178D01*
X326626976Y-97804369D01*
X326550785Y-97880559D01*
X326436500Y-97918654D01*
X326246023Y-97918654D01*
X327007928Y-97194845D02*
X327046023Y-97156750D01*
X327122214Y-97118654D01*
X327312690Y-97118654D01*
X327388880Y-97156750D01*
X327426976Y-97194845D01*
X327465071Y-97271035D01*
X327465071Y-97347226D01*
X327426976Y-97461511D01*
X326969833Y-97918654D01*
X327465071Y-97918654D01*
X337491833Y-107659607D02*
X337225166Y-107659607D01*
X337225166Y-108078654D02*
X337225166Y-107278654D01*
X337606119Y-107278654D01*
X338291833Y-107278654D02*
X337910880Y-107278654D01*
X337872785Y-107659607D01*
X337910880Y-107621511D01*
X337987071Y-107583416D01*
X338177547Y-107583416D01*
X338253738Y-107621511D01*
X338291833Y-107659607D01*
X338329928Y-107735797D01*
X338329928Y-107926273D01*
X338291833Y-108002464D01*
X338253738Y-108040559D01*
X338177547Y-108078654D01*
X337987071Y-108078654D01*
X337910880Y-108040559D01*
X337872785Y-108002464D01*
X337497286Y-100390559D02*
X337611572Y-100428654D01*
X337802048Y-100428654D01*
X337878239Y-100390559D01*
X337916334Y-100352464D01*
X337954429Y-100276273D01*
X337954429Y-100200083D01*
X337916334Y-100123892D01*
X337878239Y-100085797D01*
X337802048Y-100047702D01*
X337649667Y-100009607D01*
X337573477Y-99971511D01*
X337535381Y-99933416D01*
X337497286Y-99857226D01*
X337497286Y-99781035D01*
X337535381Y-99704845D01*
X337573477Y-99666750D01*
X337649667Y-99628654D01*
X337840143Y-99628654D01*
X337954429Y-99666750D01*
X338183000Y-99628654D02*
X338640143Y-99628654D01*
X338411572Y-100428654D02*
X338411572Y-99628654D01*
X337491833Y-105119607D02*
X337225166Y-105119607D01*
X337225166Y-105538654D02*
X337225166Y-104738654D01*
X337606119Y-104738654D01*
X338253738Y-105005321D02*
X338253738Y-105538654D01*
X338063261Y-104700559D02*
X337872785Y-105271988D01*
X338368023Y-105271988D01*
X326226976Y-102236750D02*
X326150785Y-102198654D01*
X326036500Y-102198654D01*
X325922214Y-102236750D01*
X325846023Y-102312940D01*
X325807928Y-102389130D01*
X325769833Y-102541511D01*
X325769833Y-102655797D01*
X325807928Y-102808178D01*
X325846023Y-102884369D01*
X325922214Y-102960559D01*
X326036500Y-102998654D01*
X326112690Y-102998654D01*
X326226976Y-102960559D01*
X326265071Y-102922464D01*
X326265071Y-102655797D01*
X326112690Y-102655797D01*
X326607928Y-102998654D02*
X326607928Y-102198654D01*
X327065071Y-102998654D01*
X327065071Y-102198654D01*
X327446023Y-102998654D02*
X327446023Y-102198654D01*
X327636500Y-102198654D01*
X327750785Y-102236750D01*
X327826976Y-102312940D01*
X327865071Y-102389130D01*
X327903166Y-102541511D01*
X327903166Y-102655797D01*
X327865071Y-102808178D01*
X327826976Y-102884369D01*
X327750785Y-102960559D01*
X327636500Y-102998654D01*
X327446023Y-102998654D01*
X337491833Y-110199607D02*
X337225166Y-110199607D01*
X337225166Y-110618654D02*
X337225166Y-109818654D01*
X337606119Y-109818654D01*
X338253738Y-109818654D02*
X338101357Y-109818654D01*
X338025166Y-109856750D01*
X337987071Y-109894845D01*
X337910880Y-110009130D01*
X337872785Y-110161511D01*
X337872785Y-110466273D01*
X337910880Y-110542464D01*
X337948976Y-110580559D01*
X338025166Y-110618654D01*
X338177547Y-110618654D01*
X338253738Y-110580559D01*
X338291833Y-110542464D01*
X338329928Y-110466273D01*
X338329928Y-110275797D01*
X338291833Y-110199607D01*
X338253738Y-110161511D01*
X338177547Y-110123416D01*
X338025166Y-110123416D01*
X337948976Y-110161511D01*
X337910880Y-110199607D01*
X337872785Y-110275797D01*
X329167023Y-121748654D02*
X329167023Y-120948654D01*
X329357500Y-120948654D01*
X329471785Y-120986750D01*
X329547976Y-121062940D01*
X329586071Y-121139130D01*
X329624166Y-121291511D01*
X329624166Y-121405797D01*
X329586071Y-121558178D01*
X329547976Y-121634369D01*
X329471785Y-121710559D01*
X329357500Y-121748654D01*
X329167023Y-121748654D01*
X330347976Y-120948654D02*
X329967023Y-120948654D01*
X329928928Y-121329607D01*
X329967023Y-121291511D01*
X330043214Y-121253416D01*
X330233690Y-121253416D01*
X330309880Y-121291511D01*
X330347976Y-121329607D01*
X330386071Y-121405797D01*
X330386071Y-121596273D01*
X330347976Y-121672464D01*
X330309880Y-121710559D01*
X330233690Y-121748654D01*
X330043214Y-121748654D01*
X329967023Y-121710559D01*
X329928928Y-121672464D01*
X332164166Y-121672464D02*
X332126071Y-121710559D01*
X332011785Y-121748654D01*
X331935595Y-121748654D01*
X331821309Y-121710559D01*
X331745119Y-121634369D01*
X331707023Y-121558178D01*
X331668928Y-121405797D01*
X331668928Y-121291511D01*
X331707023Y-121139130D01*
X331745119Y-121062940D01*
X331821309Y-120986750D01*
X331935595Y-120948654D01*
X332011785Y-120948654D01*
X332126071Y-120986750D01*
X332164166Y-121024845D01*
X332430833Y-120948654D02*
X332964166Y-120948654D01*
X332621309Y-121748654D01*
X326512690Y-120359607D02*
X326626976Y-120397702D01*
X326665071Y-120435797D01*
X326703166Y-120511988D01*
X326703166Y-120626273D01*
X326665071Y-120702464D01*
X326626976Y-120740559D01*
X326550785Y-120778654D01*
X326246023Y-120778654D01*
X326246023Y-119978654D01*
X326512690Y-119978654D01*
X326588880Y-120016750D01*
X326626976Y-120054845D01*
X326665071Y-120131035D01*
X326665071Y-120207226D01*
X326626976Y-120283416D01*
X326588880Y-120321511D01*
X326512690Y-120359607D01*
X326246023Y-120359607D01*
X327388880Y-120245321D02*
X327388880Y-120778654D01*
X327198404Y-119940559D02*
X327007928Y-120511988D01*
X327503166Y-120511988D01*
X338461797Y-121851741D02*
X338556078Y-121804601D01*
X338603219Y-121804601D01*
X338673929Y-121828171D01*
X338744640Y-121898882D01*
X338768210Y-121969592D01*
X338768210Y-122016733D01*
X338744640Y-122087443D01*
X338556078Y-122276005D01*
X338061103Y-121781030D01*
X338226095Y-121616039D01*
X338296806Y-121592469D01*
X338343946Y-121592469D01*
X338414657Y-121616039D01*
X338461797Y-121663179D01*
X338485367Y-121733890D01*
X338485367Y-121781030D01*
X338461797Y-121851741D01*
X338296806Y-122016733D01*
X338768210Y-121073924D02*
X338673929Y-121168205D01*
X338650359Y-121238915D01*
X338650359Y-121286056D01*
X338673929Y-121403907D01*
X338744640Y-121521758D01*
X338933202Y-121710320D01*
X339003912Y-121733890D01*
X339051053Y-121733890D01*
X339121764Y-121710320D01*
X339216044Y-121616039D01*
X339239615Y-121545328D01*
X339239615Y-121498188D01*
X339216044Y-121427477D01*
X339098193Y-121309626D01*
X339027483Y-121286056D01*
X338980342Y-121286056D01*
X338909632Y-121309626D01*
X338815351Y-121403907D01*
X338791780Y-121474617D01*
X338791780Y-121521758D01*
X338815351Y-121592469D01*
X334570833Y-121329607D02*
X334304166Y-121329607D01*
X334304166Y-121748654D02*
X334304166Y-120948654D01*
X334685119Y-120948654D01*
X335408928Y-121748654D02*
X334951785Y-121748654D01*
X335180357Y-121748654D02*
X335180357Y-120948654D01*
X335104166Y-121062940D01*
X335027976Y-121139130D01*
X334951785Y-121177226D01*
X337434690Y-117819607D02*
X337548976Y-117857702D01*
X337587071Y-117895797D01*
X337625166Y-117971988D01*
X337625166Y-118086273D01*
X337587071Y-118162464D01*
X337548976Y-118200559D01*
X337472785Y-118238654D01*
X337168023Y-118238654D01*
X337168023Y-117438654D01*
X337434690Y-117438654D01*
X337510880Y-117476750D01*
X337548976Y-117514845D01*
X337587071Y-117591035D01*
X337587071Y-117667226D01*
X337548976Y-117743416D01*
X337510880Y-117781511D01*
X337434690Y-117819607D01*
X337168023Y-117819607D01*
X337891833Y-117438654D02*
X338387071Y-117438654D01*
X338120404Y-117743416D01*
X338234690Y-117743416D01*
X338310880Y-117781511D01*
X338348976Y-117819607D01*
X338387071Y-117895797D01*
X338387071Y-118086273D01*
X338348976Y-118162464D01*
X338310880Y-118200559D01*
X338234690Y-118238654D01*
X338006119Y-118238654D01*
X337929928Y-118200559D01*
X337891833Y-118162464D01*
X336564166Y-121536750D02*
X336330833Y-121536750D01*
X336330833Y-121903416D02*
X336330833Y-121203416D01*
X336664166Y-121203416D01*
X337064166Y-121203416D02*
X337130833Y-121203416D01*
X337197500Y-121236750D01*
X337230833Y-121270083D01*
X337264166Y-121336750D01*
X337297500Y-121470083D01*
X337297500Y-121636750D01*
X337264166Y-121770083D01*
X337230833Y-121836750D01*
X337197500Y-121870083D01*
X337130833Y-121903416D01*
X337064166Y-121903416D01*
X336997500Y-121870083D01*
X336964166Y-121836750D01*
X336930833Y-121770083D01*
X336897500Y-121636750D01*
X336897500Y-121470083D01*
X336930833Y-121336750D01*
X336964166Y-121270083D01*
X336997500Y-121236750D01*
X337064166Y-121203416D01*
X326535151Y-94578654D02*
X326992294Y-94578654D01*
X326763723Y-95378654D02*
X326763723Y-94578654D01*
X327182770Y-94578654D02*
X327716104Y-95378654D01*
X327716104Y-94578654D02*
X327182770Y-95378654D01*
X328173247Y-94578654D02*
X328249437Y-94578654D01*
X328325628Y-94616750D01*
X328363723Y-94654845D01*
X328401818Y-94731035D01*
X328439913Y-94883416D01*
X328439913Y-95073892D01*
X328401818Y-95226273D01*
X328363723Y-95302464D01*
X328325628Y-95340559D01*
X328249437Y-95378654D01*
X328173247Y-95378654D01*
X328097056Y-95340559D01*
X328058961Y-95302464D01*
X328020866Y-95226273D01*
X327982770Y-95073892D01*
X327982770Y-94883416D01*
X328020866Y-94731035D01*
X328058961Y-94654845D01*
X328097056Y-94616750D01*
X328173247Y-94578654D01*
X329354199Y-94540559D02*
X328668485Y-95569130D01*
X329620866Y-95378654D02*
X329620866Y-94578654D01*
X329811342Y-94578654D01*
X329925628Y-94616750D01*
X330001818Y-94692940D01*
X330039913Y-94769130D01*
X330078008Y-94921511D01*
X330078008Y-95035797D01*
X330039913Y-95188178D01*
X330001818Y-95264369D01*
X329925628Y-95340559D01*
X329811342Y-95378654D01*
X329620866Y-95378654D01*
X330344675Y-94578654D02*
X330839913Y-94578654D01*
X330573247Y-94883416D01*
X330687532Y-94883416D01*
X330763723Y-94921511D01*
X330801818Y-94959607D01*
X330839913Y-95035797D01*
X330839913Y-95226273D01*
X330801818Y-95302464D01*
X330763723Y-95340559D01*
X330687532Y-95378654D01*
X330458961Y-95378654D01*
X330382770Y-95340559D01*
X330344675Y-95302464D01*
X326246023Y-110618654D02*
X326246023Y-109818654D01*
X326436500Y-109818654D01*
X326550785Y-109856750D01*
X326626976Y-109932940D01*
X326665071Y-110009130D01*
X326703166Y-110161511D01*
X326703166Y-110275797D01*
X326665071Y-110428178D01*
X326626976Y-110504369D01*
X326550785Y-110580559D01*
X326436500Y-110618654D01*
X326246023Y-110618654D01*
X327388880Y-110085321D02*
X327388880Y-110618654D01*
X327198404Y-109780559D02*
X327007928Y-110351988D01*
X327503166Y-110351988D01*
D11*
X325947500Y-93746750D02*
X323407500Y-93746750D01*
X341187500Y-91206750D02*
X323407500Y-91206750D01*
X341187500Y-124226750D02*
X341187500Y-93746750D01*
X325947500Y-93746750D02*
X325947500Y-96286750D01*
X341187500Y-93746750D02*
X341187500Y-91206750D01*
X323407500Y-91206750D02*
X323407500Y-93746750D01*
X325947500Y-96286750D02*
X323407500Y-96286750D01*
X323407500Y-124226750D02*
X341187500Y-124226750D01*
X323407500Y-93746750D02*
X323407500Y-124226750D01*
D10*
X337229068Y-99626110D02*
X337229068Y-99726110D01*
X337229068Y-99726110D02*
X336729068Y-99726110D01*
X336729068Y-99726110D02*
X336729068Y-99626110D01*
X336729068Y-99626110D02*
X337229068Y-99626110D01*
G36*
X337229068Y-99726110D02*
G01*
X336729068Y-99726110D01*
X336729068Y-99626110D01*
X337229068Y-99626110D01*
X337229068Y-99726110D01*
G37*
X337229068Y-99726110D02*
X336729068Y-99726110D01*
X336729068Y-99626110D01*
X337229068Y-99626110D01*
X337229068Y-99726110D01*
X337229068Y-99626110D02*
X337229068Y-99926110D01*
X337229068Y-99926110D02*
X337129068Y-99926110D01*
X337129068Y-99926110D02*
X337129068Y-99626110D01*
X337129068Y-99626110D02*
X337229068Y-99626110D01*
G36*
X337229068Y-99926110D02*
G01*
X337129068Y-99926110D01*
X337129068Y-99626110D01*
X337229068Y-99626110D01*
X337229068Y-99926110D01*
G37*
X337229068Y-99926110D02*
X337129068Y-99926110D01*
X337129068Y-99626110D01*
X337229068Y-99626110D01*
X337229068Y-99926110D01*
X336829068Y-99626110D02*
X336829068Y-100426110D01*
X336829068Y-100426110D02*
X336729068Y-100426110D01*
X336729068Y-100426110D02*
X336729068Y-99626110D01*
X336729068Y-99626110D02*
X336829068Y-99626110D01*
G36*
X336829068Y-100426110D02*
G01*
X336729068Y-100426110D01*
X336729068Y-99626110D01*
X336829068Y-99626110D01*
X336829068Y-100426110D01*
G37*
X336829068Y-100426110D02*
X336729068Y-100426110D01*
X336729068Y-99626110D01*
X336829068Y-99626110D01*
X336829068Y-100426110D01*
X337229068Y-100226110D02*
X337229068Y-100426110D01*
X337229068Y-100426110D02*
X337129068Y-100426110D01*
X337129068Y-100426110D02*
X337129068Y-100226110D01*
X337129068Y-100226110D02*
X337229068Y-100226110D01*
G36*
X337229068Y-100426110D02*
G01*
X337129068Y-100426110D01*
X337129068Y-100226110D01*
X337229068Y-100226110D01*
X337229068Y-100426110D01*
G37*
X337229068Y-100426110D02*
X337129068Y-100426110D01*
X337129068Y-100226110D01*
X337229068Y-100226110D01*
X337229068Y-100426110D01*
X337029068Y-100026110D02*
X337029068Y-100126110D01*
X337029068Y-100126110D02*
X336929068Y-100126110D01*
X336929068Y-100126110D02*
X336929068Y-100026110D01*
X336929068Y-100026110D02*
X337029068Y-100026110D01*
G36*
X337029068Y-100126110D02*
G01*
X336929068Y-100126110D01*
X336929068Y-100026110D01*
X337029068Y-100026110D01*
X337029068Y-100126110D01*
G37*
X337029068Y-100126110D02*
X336929068Y-100126110D01*
X336929068Y-100026110D01*
X337029068Y-100026110D01*
X337029068Y-100126110D01*
%TD*%
D12*
%TO.C,U1*%
X324677500Y-95016750D03*
D13*
X324677500Y-97556750D03*
X324677500Y-100096750D03*
X324677500Y-102636750D03*
X324677500Y-105176750D03*
X324677500Y-107716750D03*
X324677500Y-110256750D03*
X324677500Y-112796750D03*
X324677500Y-115336750D03*
X324677500Y-117876750D03*
X324677500Y-120416750D03*
X324906100Y-122956750D03*
X339917500Y-122956750D03*
X339917500Y-120416750D03*
X339917500Y-117876750D03*
X339917500Y-115336750D03*
X339917500Y-112796750D03*
X339917500Y-110256750D03*
X339917500Y-107716750D03*
X339917500Y-105176750D03*
X339917500Y-102636750D03*
X339917500Y-100096750D03*
X339917500Y-97556750D03*
X339917500Y-95016750D03*
X327217500Y-122956750D03*
X329757500Y-122956750D03*
X332297500Y-122956750D03*
X334837500Y-122956750D03*
X337377500Y-122956750D03*
%TD*%
%LPC*%
D14*
%TO.C,SW26*%
X152577500Y-103700000D03*
D15*
X152297500Y-99500000D03*
X163297500Y-99500000D03*
D16*
X157797500Y-99500000D03*
%TD*%
%TO.C,SW18*%
X135297500Y-133500000D03*
D15*
X140797500Y-133500000D03*
X129797500Y-133500000D03*
D14*
X130077500Y-137700000D03*
%TD*%
D16*
%TO.C,SW25*%
X171297500Y-167500000D03*
D14*
X166077500Y-171700000D03*
D15*
X176797500Y-167500000D03*
X165797500Y-167500000D03*
%TD*%
D16*
%TO.C,SW54*%
X270297500Y-150500000D03*
D15*
X275797500Y-150500000D03*
X264797500Y-150500000D03*
D14*
X265077500Y-154700000D03*
%TD*%
%TO.C,SW45*%
X265077500Y-171700000D03*
D16*
X270297500Y-167500000D03*
D15*
X275797500Y-167500000D03*
X264797500Y-167500000D03*
%TD*%
%TO.C,SW63*%
X307297500Y-133500000D03*
D16*
X301797500Y-133500000D03*
D14*
X296577500Y-137700000D03*
D15*
X296297500Y-133500000D03*
%TD*%
%TO.C,SW55*%
X320297500Y-167500000D03*
X309297500Y-167500000D03*
D16*
X314797500Y-167500000D03*
D14*
X309577500Y-171700000D03*
%TD*%
D15*
%TO.C,SW35*%
X235297500Y-167500000D03*
D14*
X224577500Y-171700000D03*
D16*
X229797500Y-167500000D03*
D15*
X224297500Y-167500000D03*
%TD*%
%TO.C,SW61*%
X278297500Y-99500000D03*
D16*
X283797500Y-99500000D03*
D15*
X289297500Y-99500000D03*
D14*
X278577500Y-103700000D03*
%TD*%
D16*
%TO.C,SW64*%
X332797500Y-150500000D03*
D14*
X327577500Y-154700000D03*
D15*
X338297500Y-150500000D03*
X327297500Y-150500000D03*
%TD*%
D14*
%TO.C,SW11*%
X98577500Y-103700000D03*
D15*
X109297500Y-99500000D03*
D16*
X103797500Y-99500000D03*
D15*
X98297500Y-99500000D03*
%TD*%
D14*
%TO.C,SW49*%
X247077500Y-154700000D03*
D16*
X252297500Y-150500000D03*
D15*
X246797500Y-150500000D03*
X257797500Y-150500000D03*
%TD*%
%TO.C,SW19*%
X138797500Y-150500000D03*
X149797500Y-150500000D03*
D14*
X139077500Y-154700000D03*
D16*
X144297500Y-150500000D03*
%TD*%
D15*
%TO.C,SW31*%
X181297500Y-99500000D03*
X170297500Y-99500000D03*
D16*
X175797500Y-99500000D03*
D14*
X170577500Y-103700000D03*
%TD*%
D15*
%TO.C,SW17*%
X125297500Y-116500000D03*
X136297500Y-116500000D03*
D16*
X130797500Y-116500000D03*
D14*
X125577500Y-120700000D03*
%TD*%
D16*
%TO.C,SW16*%
X121797500Y-99500000D03*
D15*
X116297500Y-99500000D03*
X127297500Y-99500000D03*
D14*
X116577500Y-103700000D03*
%TD*%
D16*
%TO.C,SW66*%
X306297500Y-99500000D03*
D15*
X311797500Y-99500000D03*
D14*
X301077500Y-103700000D03*
D15*
X300797500Y-99500000D03*
%TD*%
D14*
%TO.C,SW32*%
X179577500Y-120700000D03*
D15*
X179297500Y-116500000D03*
D16*
X184797500Y-116500000D03*
D15*
X190297500Y-116500000D03*
%TD*%
D14*
%TO.C,SW62*%
X287577500Y-120700000D03*
D15*
X287297500Y-116500000D03*
X298297500Y-116500000D03*
D16*
X292797500Y-116500000D03*
%TD*%
%TO.C,SW47*%
X238797500Y-116500000D03*
D15*
X233297500Y-116500000D03*
X244297500Y-116500000D03*
D14*
X233577500Y-120700000D03*
%TD*%
D15*
%TO.C,SW34*%
X203797500Y-150500000D03*
D14*
X193077500Y-154700000D03*
D16*
X198297500Y-150500000D03*
D15*
X192797500Y-150500000D03*
%TD*%
%TO.C,SW52*%
X251297500Y-116500000D03*
D16*
X256797500Y-116500000D03*
D14*
X251577500Y-120700000D03*
D15*
X262297500Y-116500000D03*
%TD*%
D14*
%TO.C,SW20*%
X139077500Y-171700000D03*
D15*
X138797500Y-167500000D03*
D16*
X144297500Y-167500000D03*
D15*
X149797500Y-167500000D03*
%TD*%
D14*
%TO.C,SW38*%
X202077500Y-137700000D03*
D16*
X207297500Y-133500000D03*
D15*
X212797500Y-133500000D03*
X201797500Y-133500000D03*
%TD*%
D14*
%TO.C,SW56*%
X260577500Y-103700000D03*
D16*
X265797500Y-99500000D03*
D15*
X271297500Y-99500000D03*
X260297500Y-99500000D03*
%TD*%
D14*
%TO.C,SW2*%
X67077500Y-120700000D03*
D15*
X77797500Y-116500000D03*
X66797500Y-116500000D03*
D16*
X72297500Y-116500000D03*
%TD*%
D15*
%TO.C,SW43*%
X219797500Y-133500000D03*
D14*
X220077500Y-137700000D03*
D16*
X225297500Y-133500000D03*
D15*
X230797500Y-133500000D03*
%TD*%
%TO.C,SW7*%
X89297500Y-116500000D03*
D16*
X94797500Y-116500000D03*
D14*
X89577500Y-120700000D03*
D15*
X100297500Y-116500000D03*
%TD*%
D14*
%TO.C,SW12*%
X107577500Y-120700000D03*
D15*
X118297500Y-116500000D03*
X107297500Y-116500000D03*
D16*
X112797500Y-116500000D03*
%TD*%
D15*
%TO.C,SW58*%
X273797500Y-133500000D03*
D16*
X279297500Y-133500000D03*
D14*
X274077500Y-137700000D03*
D15*
X284797500Y-133500000D03*
%TD*%
D14*
%TO.C,SW22*%
X143577500Y-120700000D03*
D16*
X148797500Y-116500000D03*
D15*
X154297500Y-116500000D03*
X143297500Y-116500000D03*
%TD*%
%TO.C,SW1*%
X73297500Y-99500000D03*
D16*
X67797500Y-99500000D03*
D14*
X62577500Y-103700000D03*
D15*
X62297500Y-99500000D03*
%TD*%
D14*
%TO.C,SW10*%
X98577500Y-171700000D03*
D15*
X98297500Y-167500000D03*
D16*
X103797500Y-167500000D03*
D15*
X109297500Y-167500000D03*
%TD*%
%TO.C,SW24*%
X167797500Y-150500000D03*
D16*
X162297500Y-150500000D03*
D15*
X156797500Y-150500000D03*
D14*
X157077500Y-154700000D03*
%TD*%
D15*
%TO.C,SW30*%
X208297500Y-167500000D03*
X197297500Y-167500000D03*
D14*
X197577500Y-171700000D03*
D16*
X202797500Y-167500000D03*
%TD*%
D15*
%TO.C,SW67*%
X316297500Y-116500000D03*
X305297500Y-116500000D03*
D16*
X310797500Y-116500000D03*
D14*
X305577500Y-120700000D03*
%TD*%
D15*
%TO.C,SW44*%
X228797500Y-150500000D03*
D14*
X229077500Y-154700000D03*
D15*
X239797500Y-150500000D03*
D16*
X234297500Y-150500000D03*
%TD*%
D15*
%TO.C,SW50*%
X293797500Y-167500000D03*
D14*
X283077500Y-171700000D03*
D16*
X288297500Y-167500000D03*
D15*
X282797500Y-167500000D03*
%TD*%
D14*
%TO.C,SW29*%
X175077500Y-154700000D03*
D15*
X185797500Y-150500000D03*
X174797500Y-150500000D03*
D16*
X180297500Y-150500000D03*
%TD*%
D14*
%TO.C,SW28*%
X166077500Y-137700000D03*
D15*
X176797500Y-133500000D03*
D16*
X171297500Y-133500000D03*
D15*
X165797500Y-133500000D03*
%TD*%
%TO.C,SW40*%
X257797500Y-167500000D03*
X246797500Y-167500000D03*
D16*
X252297500Y-167500000D03*
D14*
X247077500Y-171700000D03*
%TD*%
D16*
%TO.C,SW13*%
X117297500Y-133500000D03*
D14*
X112077500Y-137700000D03*
D15*
X111797500Y-133500000D03*
X122797500Y-133500000D03*
%TD*%
D16*
%TO.C,SW68*%
X350797500Y-99500000D03*
D15*
X356297500Y-99500000D03*
D14*
X345577500Y-103700000D03*
D15*
X345297500Y-99500000D03*
%TD*%
%TO.C,SW59*%
X298297500Y-150500000D03*
D14*
X287577500Y-154700000D03*
D15*
X287297500Y-150500000D03*
D16*
X292797500Y-150500000D03*
%TD*%
D14*
%TO.C,SW37*%
X197577500Y-120700000D03*
D15*
X197297500Y-116500000D03*
D16*
X202797500Y-116500000D03*
D15*
X208297500Y-116500000D03*
%TD*%
%TO.C,SW3*%
X71297500Y-133500000D03*
D16*
X76797500Y-133500000D03*
D15*
X82297500Y-133500000D03*
D14*
X71577500Y-137700000D03*
%TD*%
D16*
%TO.C,SW53*%
X261297500Y-133500000D03*
D14*
X256077500Y-137700000D03*
D15*
X266797500Y-133500000D03*
X255797500Y-133500000D03*
%TD*%
D16*
%TO.C,SW60*%
X332797500Y-167500000D03*
D14*
X327577500Y-171700000D03*
D15*
X338297500Y-167500000D03*
X327297500Y-167500000D03*
%TD*%
%TO.C,SW6*%
X91297500Y-99500000D03*
X80297500Y-99500000D03*
D14*
X80577500Y-103700000D03*
D16*
X85797500Y-99500000D03*
%TD*%
D14*
%TO.C,SW51*%
X242577500Y-103700000D03*
D16*
X247797500Y-99500000D03*
D15*
X242297500Y-99500000D03*
X253297500Y-99500000D03*
%TD*%
D16*
%TO.C,SW46*%
X229797500Y-99500000D03*
D15*
X235297500Y-99500000D03*
D14*
X224577500Y-103700000D03*
D15*
X224297500Y-99500000D03*
%TD*%
%TO.C,SW57*%
X280297500Y-116500000D03*
X269297500Y-116500000D03*
D14*
X269577500Y-120700000D03*
D16*
X274797500Y-116500000D03*
%TD*%
D15*
%TO.C,SW33*%
X183797500Y-133500000D03*
D16*
X189297500Y-133500000D03*
D15*
X194797500Y-133500000D03*
D14*
X184077500Y-137700000D03*
%TD*%
%TO.C,SW42*%
X215577500Y-120700000D03*
D16*
X220797500Y-116500000D03*
D15*
X215297500Y-116500000D03*
X226297500Y-116500000D03*
%TD*%
%TO.C,SW27*%
X161297500Y-116500000D03*
D14*
X161577500Y-120700000D03*
D15*
X172297500Y-116500000D03*
D16*
X166797500Y-116500000D03*
%TD*%
%TO.C,SW36*%
X193797500Y-99500000D03*
D15*
X188297500Y-99500000D03*
X199297500Y-99500000D03*
D14*
X188577500Y-103700000D03*
%TD*%
D15*
%TO.C,SW5*%
X80297500Y-167500000D03*
D16*
X85797500Y-167500000D03*
D14*
X80577500Y-171700000D03*
D15*
X91297500Y-167500000D03*
%TD*%
%TO.C,SW14*%
X131797500Y-150500000D03*
X120797500Y-150500000D03*
D16*
X126297500Y-150500000D03*
D14*
X121077500Y-154700000D03*
%TD*%
D15*
%TO.C,SW8*%
X104797500Y-133500000D03*
D16*
X99297500Y-133500000D03*
D14*
X94077500Y-137700000D03*
D15*
X93797500Y-133500000D03*
%TD*%
D14*
%TO.C,SW48*%
X238077500Y-137700000D03*
D15*
X248797500Y-133500000D03*
X237797500Y-133500000D03*
D16*
X243297500Y-133500000D03*
%TD*%
D15*
%TO.C,SW9*%
X102797500Y-150500000D03*
D14*
X103077500Y-154700000D03*
D15*
X113797500Y-150500000D03*
D16*
X108297500Y-150500000D03*
%TD*%
D15*
%TO.C,SW69*%
X356297500Y-116500000D03*
X345297500Y-116500000D03*
D14*
X345577500Y-120700000D03*
D16*
X350797500Y-116500000D03*
%TD*%
D12*
%TO.C,U1*%
X324677500Y-95016750D03*
D13*
X324677500Y-97556750D03*
X324677500Y-100096750D03*
X324677500Y-102636750D03*
X324677500Y-105176750D03*
X324677500Y-107716750D03*
X324677500Y-110256750D03*
X324677500Y-112796750D03*
X324677500Y-115336750D03*
X324677500Y-117876750D03*
X324677500Y-120416750D03*
X324906100Y-122956750D03*
X339917500Y-122956750D03*
X339917500Y-120416750D03*
X339917500Y-117876750D03*
X339917500Y-115336750D03*
X339917500Y-112796750D03*
X339917500Y-110256750D03*
X339917500Y-107716750D03*
X339917500Y-105176750D03*
X339917500Y-102636750D03*
X339917500Y-100096750D03*
X339917500Y-97556750D03*
X339917500Y-95016750D03*
X327217500Y-122956750D03*
X329757500Y-122956750D03*
X332297500Y-122956750D03*
X334837500Y-122956750D03*
X337377500Y-122956750D03*
%TD*%
D16*
%TO.C,SW21*%
X139797500Y-99500000D03*
D15*
X145297500Y-99500000D03*
X134297500Y-99500000D03*
D14*
X134577500Y-103700000D03*
%TD*%
D15*
%TO.C,SW41*%
X206297500Y-99500000D03*
D14*
X206577500Y-103700000D03*
D15*
X217297500Y-99500000D03*
D16*
X211797500Y-99500000D03*
%TD*%
%TO.C,SW39*%
X216297500Y-150500000D03*
D15*
X210797500Y-150500000D03*
D14*
X211077500Y-154700000D03*
D15*
X221797500Y-150500000D03*
%TD*%
%TO.C,SW23*%
X147797500Y-133500000D03*
D14*
X148077500Y-137700000D03*
D16*
X153297500Y-133500000D03*
D15*
X158797500Y-133500000D03*
%TD*%
D16*
%TO.C,SW15*%
X121797500Y-167500000D03*
D14*
X116577500Y-171700000D03*
D15*
X116297500Y-167500000D03*
X127297500Y-167500000D03*
%TD*%
D14*
%TO.C,SW65*%
X345577500Y-171700000D03*
D15*
X356297500Y-167500000D03*
D16*
X350797500Y-167500000D03*
D15*
X345297500Y-167500000D03*
%TD*%
%TO.C,SW4*%
X80297500Y-150500000D03*
X91297500Y-150500000D03*
D14*
X80577500Y-154700000D03*
D16*
X85797500Y-150500000D03*
%TD*%
M02*
