M48
; DRILL file {KiCad (6.0.1)} date Wed Feb  9 02:20:24 2022
; FORMAT={-:-/ absolute / inch / decimal}
; #@! TF.CreationDate,2022-02-09T02:20:24+01:00
; #@! TF.GenerationSoftware,Kicad,Pcbnew,(6.0.1)
; #@! TF.FileFunction,NonPlated,1,2,NPTH
FMAT,2
INCH
; #@! TA.AperFunction,NonPlated,NPTH,ComponentDrill
T1C0.0472
; #@! TA.AperFunction,NonPlated,NPTH,ComponentDrill
T2C0.0669
; #@! TA.AperFunction,NonPlated,NPTH,ComponentDrill
T3C0.1339
%
G90
G05
T1
X2.4637Y-4.0827
X2.6408Y-4.752
X2.818Y-5.4213
X3.1723Y-4.0827
X3.1723Y-6.0906
X3.1723Y-6.7598
X3.5267Y-4.752
X3.7038Y-5.4213
X3.881Y-4.0827
X3.881Y-6.7598
X4.0582Y-6.0906
X4.2353Y-4.752
X4.4125Y-5.4213
X4.5897Y-4.0827
X4.5897Y-6.7598
X4.7668Y-6.0906
X4.944Y-4.752
X5.1212Y-5.4213
X5.2983Y-4.0827
X5.4755Y-6.0906
X5.4755Y-6.7598
X5.6527Y-4.752
X5.8298Y-5.4213
X6.007Y-4.0827
X6.1842Y-6.0906
X6.3613Y-4.752
X6.5385Y-5.4213
X6.5385Y-6.7598
X6.7156Y-4.0827
X6.8928Y-6.0906
X7.07Y-4.752
X7.2471Y-5.4213
X7.4243Y-4.0827
X7.6015Y-6.0906
X7.7786Y-4.752
X7.7786Y-6.7598
X7.9558Y-5.4213
X8.133Y-4.0827
X8.3101Y-6.0906
X8.4873Y-4.752
X8.6645Y-5.4213
X8.8416Y-4.0827
X8.8416Y-6.7598
X9.0188Y-6.0906
X9.196Y-4.752
X9.3731Y-5.4213
X9.5503Y-4.0827
X9.7275Y-6.0906
X9.7275Y-6.7598
X9.9046Y-4.752
X10.0818Y-5.4213
X10.259Y-4.0827
X10.4361Y-6.0906
X10.4361Y-6.7598
X10.6133Y-4.752
X10.7905Y-5.4213
X10.9676Y-4.0827
X11.1448Y-6.7598
X11.3219Y-4.752
X11.3219Y-6.0906
X11.6763Y-5.4213
X11.8534Y-4.0827
X12.0306Y-4.752
X12.1881Y-6.7598
X12.8968Y-6.0906
X12.8968Y-6.7598
X13.6054Y-4.0827
X13.6054Y-4.752
X13.6054Y-6.7598
T2
X2.4527Y-3.9173
X2.6298Y-4.5866
X2.807Y-5.2559
X2.8857Y-3.9173
X3.0629Y-4.5866
X3.1613Y-3.9173
X3.1613Y-5.9252
X3.1613Y-6.5945
X3.2401Y-5.2559
X3.5156Y-4.5866
X3.5944Y-3.9173
X3.5944Y-5.9252
X3.5944Y-6.5945
X3.6928Y-5.2559
X3.87Y-3.9173
X3.87Y-6.5945
X3.9487Y-4.5866
X4.0471Y-5.9252
X4.1259Y-5.2559
X4.2243Y-4.5866
X4.3031Y-3.9173
X4.3031Y-6.5945
X4.4015Y-5.2559
X4.4802Y-5.9252
X4.5786Y-3.9173
X4.5786Y-6.5945
X4.6574Y-4.5866
X4.7558Y-5.9252
X4.8345Y-5.2559
X4.933Y-4.5866
X5.0117Y-3.9173
X5.0117Y-6.5945
X5.1101Y-5.2559
X5.1889Y-5.9252
X5.2873Y-3.9173
X5.366Y-4.5866
X5.4645Y-5.9252
X5.4645Y-6.5945
X5.5432Y-5.2559
X5.6416Y-4.5866
X5.7204Y-3.9173
X5.8188Y-5.2559
X5.8975Y-5.9252
X5.8975Y-6.5945
X5.996Y-3.9173
X6.0747Y-4.5866
X6.1731Y-5.9252
X6.2519Y-5.2559
X6.3503Y-4.5866
X6.429Y-3.9173
X6.5275Y-5.2559
X6.5275Y-6.5945
X6.6062Y-5.9252
X6.7046Y-3.9173
X6.7834Y-4.5866
X6.8818Y-5.9252
X6.9605Y-5.2559
X6.9605Y-6.5945
X7.059Y-4.5866
X7.1377Y-3.9173
X7.2361Y-5.2559
X7.3149Y-5.9252
X7.4133Y-3.9173
X7.492Y-4.5866
X7.5905Y-5.9252
X7.6692Y-5.2559
X7.7676Y-4.5866
X7.7676Y-6.5945
X7.8464Y-3.9173
X7.9448Y-5.2559
X8.0235Y-5.9252
X8.1219Y-3.9173
X8.2007Y-4.5866
X8.2007Y-6.5945
X8.2991Y-5.9252
X8.3779Y-5.2559
X8.4763Y-4.5866
X8.555Y-3.9173
X8.6534Y-5.2559
X8.7322Y-5.9252
X8.8306Y-3.9173
X8.8306Y-6.5945
X8.9094Y-4.5866
X9.0078Y-5.9252
X9.0865Y-5.2559
X9.1849Y-4.5866
X9.2637Y-3.9173
X9.2637Y-6.5945
X9.3621Y-5.2559
X9.4408Y-5.9252
X9.5393Y-3.9173
X9.618Y-4.5866
X9.7164Y-5.9252
X9.7164Y-6.5945
X9.7952Y-5.2559
X9.8936Y-4.5866
X9.9723Y-3.9173
X10.0708Y-5.2559
X10.1495Y-5.9252
X10.1495Y-6.5945
X10.2479Y-3.9173
X10.3267Y-4.5866
X10.4251Y-5.9252
X10.4251Y-6.5945
X10.5038Y-5.2559
X10.6023Y-4.5866
X10.681Y-3.9173
X10.7794Y-5.2559
X10.8582Y-5.9252
X10.8582Y-6.5945
X10.9566Y-3.9173
X11.0353Y-4.5866
X11.1338Y-6.5945
X11.2125Y-5.2559
X11.3109Y-4.5866
X11.3109Y-5.9252
X11.3897Y-3.9173
X11.5668Y-6.5945
X11.6653Y-5.2559
X11.744Y-4.5866
X11.744Y-5.9252
X11.8424Y-3.9173
X12.0196Y-4.5866
X12.0983Y-5.2559
X12.1771Y-6.5945
X12.2755Y-3.9173
X12.4527Y-4.5866
X12.6101Y-6.5945
X12.8857Y-5.9252
X12.8857Y-6.5945
X13.3188Y-5.9252
X13.3188Y-6.5945
X13.5944Y-3.9173
X13.5944Y-4.5866
X13.5944Y-6.5945
X14.0275Y-3.9173
X14.0275Y-4.5866
X14.0275Y-6.5945
T3
X2.6692Y-3.9173
X2.8464Y-4.5866
X3.0235Y-5.2559
X3.3779Y-3.9173
X3.3779Y-5.9252
X3.3779Y-6.5945
X3.7322Y-4.5866
X3.9094Y-5.2559
X4.0865Y-3.9173
X4.0865Y-6.5945
X4.2637Y-5.9252
X4.4408Y-4.5866
X4.618Y-5.2559
X4.7952Y-3.9173
X4.7952Y-6.5945
X4.9723Y-5.9252
X5.1495Y-4.5866
X5.3267Y-5.2559
X5.5038Y-3.9173
X5.681Y-5.9252
X5.681Y-6.5945
X5.8582Y-4.5866
X6.0353Y-5.2559
X6.2125Y-3.9173
X6.3897Y-5.9252
X6.5668Y-4.5866
X6.744Y-5.2559
X6.744Y-6.5945
X6.9212Y-3.9173
X7.0983Y-5.9252
X7.2755Y-4.5866
X7.4527Y-5.2559
X7.6298Y-3.9173
X7.807Y-5.9252
X7.9842Y-4.5866
X7.9842Y-6.5945
X8.1613Y-5.2559
X8.3385Y-3.9173
X8.5156Y-5.9252
X8.6928Y-4.5866
X8.87Y-5.2559
X9.0471Y-3.9173
X9.0471Y-6.5945
X9.2243Y-5.9252
X9.4015Y-4.5866
X9.5786Y-5.2559
X9.7558Y-3.9173
X9.933Y-5.9252
X9.933Y-6.5945
X10.1101Y-4.5866
X10.2873Y-5.2559
X10.4645Y-3.9173
X10.6416Y-5.9252
X10.6416Y-6.5945
X10.8188Y-4.5866
X10.996Y-5.2559
X11.1731Y-3.9173
X11.3503Y-6.5945
X11.5275Y-4.5866
X11.5275Y-5.9252
X11.8818Y-5.2559
X12.059Y-3.9173
X12.2361Y-4.5866
X12.3936Y-6.5945
X13.1023Y-5.9252
X13.1023Y-6.5945
X13.8109Y-3.9173
X13.8109Y-4.5866
X13.8109Y-6.5945
T0
M30
