M48
; DRILL file {KiCad (6.0.1)} date Wed Feb  9 02:20:24 2022
; FORMAT={-:-/ absolute / inch / decimal}
; #@! TF.CreationDate,2022-02-09T02:20:24+01:00
; #@! TF.GenerationSoftware,Kicad,Pcbnew,(6.0.1)
; #@! TF.FileFunction,Plated,1,2,PTH
FMAT,2
INCH
; #@! TA.AperFunction,Plated,PTH,ComponentDrill
T1C0.0430
; #@! TA.AperFunction,Plated,PTH,ComponentDrill
T2C0.0472
%
G90
G05
T1
X12.7826Y-3.7408
X12.7826Y-3.8408
X12.7826Y-3.9408
X12.7826Y-4.0408
X12.7826Y-4.1408
X12.7826Y-4.2408
X12.7826Y-4.3408
X12.7826Y-4.4408
X12.7826Y-4.5408
X12.7826Y-4.6408
X12.7826Y-4.7408
X12.7916Y-4.8408
X12.8826Y-4.8408
X12.9826Y-4.8408
X13.0826Y-4.8408
X13.1826Y-4.8408
X13.2826Y-4.8408
X13.3826Y-3.7408
X13.3826Y-3.8408
X13.3826Y-3.9408
X13.3826Y-4.0408
X13.3826Y-4.1408
X13.3826Y-4.2408
X13.3826Y-4.3408
X13.3826Y-4.4408
X13.3826Y-4.5408
X13.3826Y-4.6408
X13.3826Y-4.7408
X13.3826Y-4.8408
T2
X2.6692Y-3.685
X2.8464Y-4.3543
X2.866Y-3.7677
X3.0235Y-5.0236
X3.0432Y-4.437
X3.2204Y-5.1063
X3.3779Y-3.685
X3.3779Y-5.6929
X3.3779Y-6.3622
X3.5747Y-3.7677
X3.5747Y-5.7756
X3.5747Y-6.4449
X3.7322Y-4.3543
X3.9094Y-5.0236
X3.929Y-4.437
X4.0865Y-3.685
X4.0865Y-6.3622
X4.1062Y-5.1063
X4.2637Y-5.6929
X4.2834Y-3.7677
X4.2834Y-6.4449
X4.4408Y-4.3543
X4.4605Y-5.7756
X4.618Y-5.0236
X4.6377Y-4.437
X4.7952Y-3.685
X4.7952Y-6.3622
X4.8149Y-5.1063
X4.9723Y-5.6929
X4.992Y-3.7677
X4.992Y-6.4449
X5.1495Y-4.3543
X5.1692Y-5.7756
X5.3267Y-5.0236
X5.3464Y-4.437
X5.5038Y-3.685
X5.5235Y-5.1063
X5.681Y-5.6929
X5.681Y-6.3622
X5.7007Y-3.7677
X5.8582Y-4.3543
X5.8779Y-5.7756
X5.8779Y-6.4449
X6.0353Y-5.0236
X6.055Y-4.437
X6.2125Y-3.685
X6.2322Y-5.1063
X6.3897Y-5.6929
X6.4094Y-3.7677
X6.5668Y-4.3543
X6.5865Y-5.7756
X6.744Y-5.0236
X6.744Y-6.3622
X6.7637Y-4.437
X6.9212Y-3.685
X6.9408Y-5.1063
X6.9408Y-6.4449
X7.0983Y-5.6929
X7.118Y-3.7677
X7.2755Y-4.3543
X7.2952Y-5.7756
X7.4527Y-5.0236
X7.4723Y-4.437
X7.6298Y-3.685
X7.6495Y-5.1063
X7.807Y-5.6929
X7.8267Y-3.7677
X7.9842Y-4.3543
X7.9842Y-6.3622
X8.0038Y-5.7756
X8.1613Y-5.0236
X8.181Y-4.437
X8.181Y-6.4449
X8.3385Y-3.685
X8.3582Y-5.1063
X8.5156Y-5.6929
X8.5353Y-3.7677
X8.6928Y-4.3543
X8.7125Y-5.7756
X8.87Y-5.0236
X8.8897Y-4.437
X9.0471Y-3.685
X9.0471Y-6.3622
X9.0668Y-5.1063
X9.2243Y-5.6929
X9.244Y-3.7677
X9.244Y-6.4449
X9.4015Y-4.3543
X9.4212Y-5.7756
X9.5786Y-5.0236
X9.5983Y-4.437
X9.7558Y-3.685
X9.7755Y-5.1063
X9.933Y-5.6929
X9.933Y-6.3622
X9.9527Y-3.7677
X10.1101Y-4.3543
X10.1298Y-5.7756
X10.1298Y-6.4449
X10.2873Y-5.0236
X10.307Y-4.437
X10.4645Y-3.685
X10.4842Y-5.1063
X10.6416Y-5.6929
X10.6416Y-6.3622
X10.6613Y-3.7677
X10.8188Y-4.3543
X10.8385Y-5.7756
X10.8385Y-6.4449
X10.996Y-5.0236
X11.0156Y-4.437
X11.1731Y-3.685
X11.1928Y-5.1063
X11.3503Y-6.3622
X11.37Y-3.7677
X11.5275Y-4.3543
X11.5275Y-5.6929
X11.5471Y-6.4449
X11.7243Y-4.437
X11.7243Y-5.7756
X11.8818Y-5.0236
X12.059Y-3.685
X12.0786Y-5.1063
X12.2361Y-4.3543
X12.2558Y-3.7677
X12.3936Y-6.3622
X12.433Y-4.437
X12.5905Y-6.4449
X13.1023Y-5.6929
X13.1023Y-6.3622
X13.2991Y-5.7756
X13.2991Y-6.4449
X13.8109Y-3.685
X13.8109Y-4.3543
X13.8109Y-6.3622
X14.0078Y-3.7677
X14.0078Y-4.437
X14.0078Y-6.4449
T0
M30
