%TF.GenerationSoftware,KiCad,Pcbnew,(6.0.1)*%
%TF.CreationDate,2022-02-09T02:20:10+01:00*%
%TF.ProjectId,choc660,63686f63-3636-4302-9e6b-696361645f70,rev?*%
%TF.SameCoordinates,Original*%
%TF.FileFunction,Soldermask,Bot*%
%TF.FilePolarity,Negative*%
%FSLAX46Y46*%
G04 Gerber Fmt 4.6, Leading zero omitted, Abs format (unit mm)*
G04 Created by KiCad (PCBNEW (6.0.1)) date 2022-02-09 02:20:10*
%MOMM*%
%LPD*%
G01*
G04 APERTURE LIST*
%ADD10C,1.200000*%
%ADD11C,1.700000*%
%ADD12C,3.400000*%
%ADD13C,2.000000*%
%ADD14R,1.752600X1.752600*%
%ADD15C,1.752600*%
%ADD16R,1.200000X0.900000*%
G04 APERTURE END LIST*
D10*
%TO.C,SW26*%
X152577500Y-103700000D03*
D11*
X152297500Y-99500000D03*
X163297500Y-99500000D03*
D12*
X157797500Y-99500000D03*
D13*
X162797500Y-95700000D03*
X157797500Y-93600000D03*
%TD*%
D12*
%TO.C,SW18*%
X135297500Y-133500000D03*
D11*
X140797500Y-133500000D03*
X129797500Y-133500000D03*
D10*
X130077500Y-137700000D03*
D13*
X140297500Y-129700000D03*
X135297500Y-127600000D03*
%TD*%
D12*
%TO.C,SW25*%
X171297500Y-167500000D03*
D10*
X166077500Y-171700000D03*
D11*
X176797500Y-167500000D03*
X165797500Y-167500000D03*
D13*
X176297500Y-163700000D03*
X171297500Y-161600000D03*
%TD*%
D12*
%TO.C,SW54*%
X270297500Y-150500000D03*
D11*
X275797500Y-150500000D03*
X264797500Y-150500000D03*
D10*
X265077500Y-154700000D03*
D13*
X275297500Y-146700000D03*
X270297500Y-144600000D03*
%TD*%
D10*
%TO.C,SW45*%
X265077500Y-171700000D03*
D12*
X270297500Y-167500000D03*
D11*
X275797500Y-167500000D03*
X264797500Y-167500000D03*
D13*
X275297500Y-163700000D03*
X270297500Y-161600000D03*
%TD*%
D11*
%TO.C,SW63*%
X307297500Y-133500000D03*
D12*
X301797500Y-133500000D03*
D10*
X296577500Y-137700000D03*
D11*
X296297500Y-133500000D03*
D13*
X306797500Y-129700000D03*
X301797500Y-127600000D03*
%TD*%
D11*
%TO.C,SW55*%
X320297500Y-167500000D03*
X309297500Y-167500000D03*
D12*
X314797500Y-167500000D03*
D10*
X309577500Y-171700000D03*
D13*
X319797500Y-163700000D03*
X314797500Y-161600000D03*
%TD*%
D11*
%TO.C,SW35*%
X235297500Y-167500000D03*
D10*
X224577500Y-171700000D03*
D12*
X229797500Y-167500000D03*
D11*
X224297500Y-167500000D03*
D13*
X234797500Y-163700000D03*
X229797500Y-161600000D03*
%TD*%
D11*
%TO.C,SW61*%
X278297500Y-99500000D03*
D12*
X283797500Y-99500000D03*
D11*
X289297500Y-99500000D03*
D10*
X278577500Y-103700000D03*
D13*
X288797500Y-95700000D03*
X283797500Y-93600000D03*
%TD*%
D12*
%TO.C,SW64*%
X332797500Y-150500000D03*
D10*
X327577500Y-154700000D03*
D11*
X338297500Y-150500000D03*
X327297500Y-150500000D03*
D13*
X337797500Y-146700000D03*
X332797500Y-144600000D03*
%TD*%
D10*
%TO.C,SW11*%
X98577500Y-103700000D03*
D11*
X109297500Y-99500000D03*
D12*
X103797500Y-99500000D03*
D11*
X98297500Y-99500000D03*
D13*
X108797500Y-95700000D03*
X103797500Y-93600000D03*
%TD*%
D10*
%TO.C,SW49*%
X247077500Y-154700000D03*
D12*
X252297500Y-150500000D03*
D11*
X246797500Y-150500000D03*
X257797500Y-150500000D03*
D13*
X257297500Y-146700000D03*
X252297500Y-144600000D03*
%TD*%
D11*
%TO.C,SW19*%
X138797500Y-150500000D03*
X149797500Y-150500000D03*
D10*
X139077500Y-154700000D03*
D12*
X144297500Y-150500000D03*
D13*
X149297500Y-146700000D03*
X144297500Y-144600000D03*
%TD*%
D11*
%TO.C,SW31*%
X181297500Y-99500000D03*
X170297500Y-99500000D03*
D12*
X175797500Y-99500000D03*
D10*
X170577500Y-103700000D03*
D13*
X180797500Y-95700000D03*
X175797500Y-93600000D03*
%TD*%
D11*
%TO.C,SW17*%
X125297500Y-116500000D03*
X136297500Y-116500000D03*
D12*
X130797500Y-116500000D03*
D10*
X125577500Y-120700000D03*
D13*
X135797500Y-112700000D03*
X130797500Y-110600000D03*
%TD*%
D12*
%TO.C,SW16*%
X121797500Y-99500000D03*
D11*
X116297500Y-99500000D03*
X127297500Y-99500000D03*
D10*
X116577500Y-103700000D03*
D13*
X126797500Y-95700000D03*
X121797500Y-93600000D03*
%TD*%
D12*
%TO.C,SW66*%
X306297500Y-99500000D03*
D11*
X311797500Y-99500000D03*
D10*
X301077500Y-103700000D03*
D11*
X300797500Y-99500000D03*
D13*
X311297500Y-95700000D03*
X306297500Y-93600000D03*
%TD*%
D10*
%TO.C,SW32*%
X179577500Y-120700000D03*
D11*
X179297500Y-116500000D03*
D12*
X184797500Y-116500000D03*
D11*
X190297500Y-116500000D03*
D13*
X189797500Y-112700000D03*
X184797500Y-110600000D03*
%TD*%
D10*
%TO.C,SW62*%
X287577500Y-120700000D03*
D11*
X287297500Y-116500000D03*
X298297500Y-116500000D03*
D12*
X292797500Y-116500000D03*
D13*
X297797500Y-112700000D03*
X292797500Y-110600000D03*
%TD*%
D12*
%TO.C,SW47*%
X238797500Y-116500000D03*
D11*
X233297500Y-116500000D03*
X244297500Y-116500000D03*
D10*
X233577500Y-120700000D03*
D13*
X243797500Y-112700000D03*
X238797500Y-110600000D03*
%TD*%
D11*
%TO.C,SW34*%
X203797500Y-150500000D03*
D10*
X193077500Y-154700000D03*
D12*
X198297500Y-150500000D03*
D11*
X192797500Y-150500000D03*
D13*
X203297500Y-146700000D03*
X198297500Y-144600000D03*
%TD*%
D11*
%TO.C,SW52*%
X251297500Y-116500000D03*
D12*
X256797500Y-116500000D03*
D10*
X251577500Y-120700000D03*
D11*
X262297500Y-116500000D03*
D13*
X261797500Y-112700000D03*
X256797500Y-110600000D03*
%TD*%
D10*
%TO.C,SW20*%
X139077500Y-171700000D03*
D11*
X138797500Y-167500000D03*
D12*
X144297500Y-167500000D03*
D11*
X149797500Y-167500000D03*
D13*
X149297500Y-163700000D03*
X144297500Y-161600000D03*
%TD*%
D10*
%TO.C,SW38*%
X202077500Y-137700000D03*
D12*
X207297500Y-133500000D03*
D11*
X212797500Y-133500000D03*
X201797500Y-133500000D03*
D13*
X212297500Y-129700000D03*
X207297500Y-127600000D03*
%TD*%
D10*
%TO.C,SW56*%
X260577500Y-103700000D03*
D12*
X265797500Y-99500000D03*
D11*
X271297500Y-99500000D03*
X260297500Y-99500000D03*
D13*
X270797500Y-95700000D03*
X265797500Y-93600000D03*
%TD*%
D10*
%TO.C,SW2*%
X67077500Y-120700000D03*
D11*
X77797500Y-116500000D03*
X66797500Y-116500000D03*
D12*
X72297500Y-116500000D03*
D13*
X77297500Y-112700000D03*
X72297500Y-110600000D03*
%TD*%
D11*
%TO.C,SW43*%
X219797500Y-133500000D03*
D10*
X220077500Y-137700000D03*
D12*
X225297500Y-133500000D03*
D11*
X230797500Y-133500000D03*
D13*
X230297500Y-129700000D03*
X225297500Y-127600000D03*
%TD*%
D11*
%TO.C,SW7*%
X89297500Y-116500000D03*
D12*
X94797500Y-116500000D03*
D10*
X89577500Y-120700000D03*
D11*
X100297500Y-116500000D03*
D13*
X99797500Y-112700000D03*
X94797500Y-110600000D03*
%TD*%
D10*
%TO.C,SW12*%
X107577500Y-120700000D03*
D11*
X118297500Y-116500000D03*
X107297500Y-116500000D03*
D12*
X112797500Y-116500000D03*
D13*
X117797500Y-112700000D03*
X112797500Y-110600000D03*
%TD*%
D11*
%TO.C,SW58*%
X273797500Y-133500000D03*
D12*
X279297500Y-133500000D03*
D10*
X274077500Y-137700000D03*
D11*
X284797500Y-133500000D03*
D13*
X284297500Y-129700000D03*
X279297500Y-127600000D03*
%TD*%
D10*
%TO.C,SW22*%
X143577500Y-120700000D03*
D12*
X148797500Y-116500000D03*
D11*
X154297500Y-116500000D03*
X143297500Y-116500000D03*
D13*
X153797500Y-112700000D03*
X148797500Y-110600000D03*
%TD*%
D11*
%TO.C,SW1*%
X73297500Y-99500000D03*
D12*
X67797500Y-99500000D03*
D10*
X62577500Y-103700000D03*
D11*
X62297500Y-99500000D03*
D13*
X72797500Y-95700000D03*
X67797500Y-93600000D03*
%TD*%
D10*
%TO.C,SW10*%
X98577500Y-171700000D03*
D11*
X98297500Y-167500000D03*
D12*
X103797500Y-167500000D03*
D11*
X109297500Y-167500000D03*
D13*
X108797500Y-163700000D03*
X103797500Y-161600000D03*
%TD*%
D11*
%TO.C,SW24*%
X167797500Y-150500000D03*
D12*
X162297500Y-150500000D03*
D11*
X156797500Y-150500000D03*
D10*
X157077500Y-154700000D03*
D13*
X167297500Y-146700000D03*
X162297500Y-144600000D03*
%TD*%
D11*
%TO.C,SW30*%
X208297500Y-167500000D03*
X197297500Y-167500000D03*
D10*
X197577500Y-171700000D03*
D12*
X202797500Y-167500000D03*
D13*
X207797500Y-163700000D03*
X202797500Y-161600000D03*
%TD*%
D11*
%TO.C,SW67*%
X316297500Y-116500000D03*
X305297500Y-116500000D03*
D12*
X310797500Y-116500000D03*
D10*
X305577500Y-120700000D03*
D13*
X315797500Y-112700000D03*
X310797500Y-110600000D03*
%TD*%
D11*
%TO.C,SW44*%
X228797500Y-150500000D03*
D10*
X229077500Y-154700000D03*
D11*
X239797500Y-150500000D03*
D12*
X234297500Y-150500000D03*
D13*
X239297500Y-146700000D03*
X234297500Y-144600000D03*
%TD*%
D11*
%TO.C,SW50*%
X293797500Y-167500000D03*
D10*
X283077500Y-171700000D03*
D12*
X288297500Y-167500000D03*
D11*
X282797500Y-167500000D03*
D13*
X293297500Y-163700000D03*
X288297500Y-161600000D03*
%TD*%
D10*
%TO.C,SW29*%
X175077500Y-154700000D03*
D11*
X185797500Y-150500000D03*
X174797500Y-150500000D03*
D12*
X180297500Y-150500000D03*
D13*
X185297500Y-146700000D03*
X180297500Y-144600000D03*
%TD*%
D10*
%TO.C,SW28*%
X166077500Y-137700000D03*
D11*
X176797500Y-133500000D03*
D12*
X171297500Y-133500000D03*
D11*
X165797500Y-133500000D03*
D13*
X176297500Y-129700000D03*
X171297500Y-127600000D03*
%TD*%
D11*
%TO.C,SW40*%
X257797500Y-167500000D03*
X246797500Y-167500000D03*
D12*
X252297500Y-167500000D03*
D10*
X247077500Y-171700000D03*
D13*
X257297500Y-163700000D03*
X252297500Y-161600000D03*
%TD*%
D12*
%TO.C,SW13*%
X117297500Y-133500000D03*
D10*
X112077500Y-137700000D03*
D11*
X111797500Y-133500000D03*
X122797500Y-133500000D03*
D13*
X122297500Y-129700000D03*
X117297500Y-127600000D03*
%TD*%
D12*
%TO.C,SW68*%
X350797500Y-99500000D03*
D11*
X356297500Y-99500000D03*
D10*
X345577500Y-103700000D03*
D11*
X345297500Y-99500000D03*
D13*
X355797500Y-95700000D03*
X350797500Y-93600000D03*
%TD*%
D11*
%TO.C,SW59*%
X298297500Y-150500000D03*
D10*
X287577500Y-154700000D03*
D11*
X287297500Y-150500000D03*
D12*
X292797500Y-150500000D03*
D13*
X297797500Y-146700000D03*
X292797500Y-144600000D03*
%TD*%
D10*
%TO.C,SW37*%
X197577500Y-120700000D03*
D11*
X197297500Y-116500000D03*
D12*
X202797500Y-116500000D03*
D11*
X208297500Y-116500000D03*
D13*
X207797500Y-112700000D03*
X202797500Y-110600000D03*
%TD*%
D11*
%TO.C,SW3*%
X71297500Y-133500000D03*
D12*
X76797500Y-133500000D03*
D11*
X82297500Y-133500000D03*
D10*
X71577500Y-137700000D03*
D13*
X81797500Y-129700000D03*
X76797500Y-127600000D03*
%TD*%
D12*
%TO.C,SW53*%
X261297500Y-133500000D03*
D10*
X256077500Y-137700000D03*
D11*
X266797500Y-133500000D03*
X255797500Y-133500000D03*
D13*
X266297500Y-129700000D03*
X261297500Y-127600000D03*
%TD*%
D12*
%TO.C,SW60*%
X332797500Y-167500000D03*
D10*
X327577500Y-171700000D03*
D11*
X338297500Y-167500000D03*
X327297500Y-167500000D03*
D13*
X337797500Y-163700000D03*
X332797500Y-161600000D03*
%TD*%
D11*
%TO.C,SW6*%
X91297500Y-99500000D03*
X80297500Y-99500000D03*
D10*
X80577500Y-103700000D03*
D12*
X85797500Y-99500000D03*
D13*
X90797500Y-95700000D03*
X85797500Y-93600000D03*
%TD*%
D10*
%TO.C,SW51*%
X242577500Y-103700000D03*
D12*
X247797500Y-99500000D03*
D11*
X242297500Y-99500000D03*
X253297500Y-99500000D03*
D13*
X252797500Y-95700000D03*
X247797500Y-93600000D03*
%TD*%
D12*
%TO.C,SW46*%
X229797500Y-99500000D03*
D11*
X235297500Y-99500000D03*
D10*
X224577500Y-103700000D03*
D11*
X224297500Y-99500000D03*
D13*
X234797500Y-95700000D03*
X229797500Y-93600000D03*
%TD*%
D11*
%TO.C,SW57*%
X280297500Y-116500000D03*
X269297500Y-116500000D03*
D10*
X269577500Y-120700000D03*
D12*
X274797500Y-116500000D03*
D13*
X279797500Y-112700000D03*
X274797500Y-110600000D03*
%TD*%
D11*
%TO.C,SW33*%
X183797500Y-133500000D03*
D12*
X189297500Y-133500000D03*
D11*
X194797500Y-133500000D03*
D10*
X184077500Y-137700000D03*
D13*
X194297500Y-129700000D03*
X189297500Y-127600000D03*
%TD*%
D10*
%TO.C,SW42*%
X215577500Y-120700000D03*
D12*
X220797500Y-116500000D03*
D11*
X215297500Y-116500000D03*
X226297500Y-116500000D03*
D13*
X225797500Y-112700000D03*
X220797500Y-110600000D03*
%TD*%
D11*
%TO.C,SW27*%
X161297500Y-116500000D03*
D10*
X161577500Y-120700000D03*
D11*
X172297500Y-116500000D03*
D12*
X166797500Y-116500000D03*
D13*
X171797500Y-112700000D03*
X166797500Y-110600000D03*
%TD*%
D12*
%TO.C,SW36*%
X193797500Y-99500000D03*
D11*
X188297500Y-99500000D03*
X199297500Y-99500000D03*
D10*
X188577500Y-103700000D03*
D13*
X198797500Y-95700000D03*
X193797500Y-93600000D03*
%TD*%
D11*
%TO.C,SW5*%
X80297500Y-167500000D03*
D12*
X85797500Y-167500000D03*
D10*
X80577500Y-171700000D03*
D11*
X91297500Y-167500000D03*
D13*
X90797500Y-163700000D03*
X85797500Y-161600000D03*
%TD*%
D11*
%TO.C,SW14*%
X131797500Y-150500000D03*
X120797500Y-150500000D03*
D12*
X126297500Y-150500000D03*
D10*
X121077500Y-154700000D03*
D13*
X131297500Y-146700000D03*
X126297500Y-144600000D03*
%TD*%
D11*
%TO.C,SW8*%
X104797500Y-133500000D03*
D12*
X99297500Y-133500000D03*
D10*
X94077500Y-137700000D03*
D11*
X93797500Y-133500000D03*
D13*
X104297500Y-129700000D03*
X99297500Y-127600000D03*
%TD*%
D10*
%TO.C,SW48*%
X238077500Y-137700000D03*
D11*
X248797500Y-133500000D03*
X237797500Y-133500000D03*
D12*
X243297500Y-133500000D03*
D13*
X248297500Y-129700000D03*
X243297500Y-127600000D03*
%TD*%
D11*
%TO.C,SW9*%
X102797500Y-150500000D03*
D10*
X103077500Y-154700000D03*
D11*
X113797500Y-150500000D03*
D12*
X108297500Y-150500000D03*
D13*
X113297500Y-146700000D03*
X108297500Y-144600000D03*
%TD*%
D11*
%TO.C,SW69*%
X356297500Y-116500000D03*
X345297500Y-116500000D03*
D10*
X345577500Y-120700000D03*
D12*
X350797500Y-116500000D03*
D13*
X355797500Y-112700000D03*
X350797500Y-110600000D03*
%TD*%
D14*
%TO.C,U1*%
X324677500Y-95016750D03*
D15*
X324677500Y-97556750D03*
X324677500Y-100096750D03*
X324677500Y-102636750D03*
X324677500Y-105176750D03*
X324677500Y-107716750D03*
X324677500Y-110256750D03*
X324677500Y-112796750D03*
X324677500Y-115336750D03*
X324677500Y-117876750D03*
X324677500Y-120416750D03*
X324906100Y-122956750D03*
X339917500Y-122956750D03*
X339917500Y-120416750D03*
X339917500Y-117876750D03*
X339917500Y-115336750D03*
X339917500Y-112796750D03*
X339917500Y-110256750D03*
X339917500Y-107716750D03*
X339917500Y-105176750D03*
X339917500Y-102636750D03*
X339917500Y-100096750D03*
X339917500Y-97556750D03*
X339917500Y-95016750D03*
X327217500Y-122956750D03*
X329757500Y-122956750D03*
X332297500Y-122956750D03*
X334837500Y-122956750D03*
X337377500Y-122956750D03*
%TD*%
D12*
%TO.C,SW21*%
X139797500Y-99500000D03*
D11*
X145297500Y-99500000D03*
X134297500Y-99500000D03*
D10*
X134577500Y-103700000D03*
D13*
X144797500Y-95700000D03*
X139797500Y-93600000D03*
%TD*%
D11*
%TO.C,SW41*%
X206297500Y-99500000D03*
D10*
X206577500Y-103700000D03*
D11*
X217297500Y-99500000D03*
D12*
X211797500Y-99500000D03*
D13*
X216797500Y-95700000D03*
X211797500Y-93600000D03*
%TD*%
D12*
%TO.C,SW39*%
X216297500Y-150500000D03*
D11*
X210797500Y-150500000D03*
D10*
X211077500Y-154700000D03*
D11*
X221797500Y-150500000D03*
D13*
X221297500Y-146700000D03*
X216297500Y-144600000D03*
%TD*%
D11*
%TO.C,SW23*%
X147797500Y-133500000D03*
D10*
X148077500Y-137700000D03*
D12*
X153297500Y-133500000D03*
D11*
X158797500Y-133500000D03*
D13*
X158297500Y-129700000D03*
X153297500Y-127600000D03*
%TD*%
D12*
%TO.C,SW15*%
X121797500Y-167500000D03*
D10*
X116577500Y-171700000D03*
D11*
X116297500Y-167500000D03*
X127297500Y-167500000D03*
D13*
X126797500Y-163700000D03*
X121797500Y-161600000D03*
%TD*%
D10*
%TO.C,SW65*%
X345577500Y-171700000D03*
D11*
X356297500Y-167500000D03*
D12*
X350797500Y-167500000D03*
D11*
X345297500Y-167500000D03*
D13*
X355797500Y-163700000D03*
X350797500Y-161600000D03*
%TD*%
D11*
%TO.C,SW4*%
X80297500Y-150500000D03*
X91297500Y-150500000D03*
D10*
X80577500Y-154700000D03*
D12*
X85797500Y-150500000D03*
D13*
X90797500Y-146700000D03*
X85797500Y-144600000D03*
%TD*%
D16*
%TO.C,D64*%
X340950000Y-142650000D03*
X340950000Y-145950000D03*
%TD*%
%TO.C,D20*%
X152450000Y-170150000D03*
X152450000Y-166850000D03*
%TD*%
%TO.C,D58*%
X287450000Y-136150000D03*
X287450000Y-132850000D03*
%TD*%
%TO.C,D62*%
X300950000Y-108750000D03*
X300950000Y-112050000D03*
%TD*%
%TO.C,D30*%
X210950000Y-170150000D03*
X210950000Y-166850000D03*
%TD*%
%TO.C,D61*%
X292000000Y-91700000D03*
X292000000Y-95000000D03*
%TD*%
%TO.C,D50*%
X296450000Y-170150000D03*
X296450000Y-166850000D03*
%TD*%
%TO.C,D51*%
X256000000Y-91700000D03*
X256000000Y-95000000D03*
%TD*%
%TO.C,D15*%
X129950000Y-159650000D03*
X129950000Y-162950000D03*
%TD*%
%TO.C,D9*%
X116450000Y-153150000D03*
X116450000Y-149850000D03*
%TD*%
%TO.C,D33*%
X197450000Y-125650000D03*
X197450000Y-128950000D03*
%TD*%
%TO.C,D27*%
X174950000Y-119150000D03*
X174950000Y-115850000D03*
%TD*%
%TO.C,D8*%
X107450000Y-136150000D03*
X107450000Y-132850000D03*
%TD*%
%TO.C,D43*%
X233450000Y-125650000D03*
X233450000Y-128950000D03*
%TD*%
%TO.C,D53*%
X269450000Y-125650000D03*
X269450000Y-128950000D03*
%TD*%
%TO.C,D44*%
X242450000Y-142650000D03*
X242450000Y-145950000D03*
%TD*%
%TO.C,D22*%
X156950000Y-108750000D03*
X156950000Y-112050000D03*
%TD*%
%TO.C,D4*%
X93950000Y-142650000D03*
X93950000Y-145950000D03*
%TD*%
%TO.C,D63*%
X309950000Y-125650000D03*
X309950000Y-128950000D03*
%TD*%
%TO.C,D25*%
X179450000Y-159650000D03*
X179450000Y-162950000D03*
%TD*%
%TO.C,D11*%
X112000000Y-91700000D03*
X112000000Y-95000000D03*
%TD*%
%TO.C,D69*%
X358950000Y-106450000D03*
X358950000Y-109750000D03*
%TD*%
%TO.C,D39*%
X224450000Y-153150000D03*
X224450000Y-149850000D03*
%TD*%
%TO.C,D57*%
X282950000Y-119150000D03*
X282950000Y-115850000D03*
%TD*%
%TO.C,D60*%
X340950000Y-170150000D03*
X340950000Y-166850000D03*
%TD*%
%TO.C,D65*%
X358950000Y-159650000D03*
X358950000Y-162950000D03*
%TD*%
%TO.C,D38*%
X215450000Y-136150000D03*
X215450000Y-132850000D03*
%TD*%
%TO.C,D29*%
X188450000Y-153150000D03*
X188450000Y-149850000D03*
%TD*%
%TO.C,D14*%
X134450000Y-142650000D03*
X134450000Y-145950000D03*
%TD*%
%TO.C,D17*%
X138950000Y-119150000D03*
X138950000Y-115850000D03*
%TD*%
%TO.C,D19*%
X152450000Y-153150000D03*
X152450000Y-149850000D03*
%TD*%
%TO.C,D35*%
X237950000Y-159650000D03*
X237950000Y-162950000D03*
%TD*%
%TO.C,D37*%
X210950000Y-119150000D03*
X210950000Y-115850000D03*
%TD*%
%TO.C,D1*%
X76000000Y-91700000D03*
X76000000Y-95000000D03*
%TD*%
%TO.C,D45*%
X278450000Y-159650000D03*
X278450000Y-162950000D03*
%TD*%
%TO.C,D56*%
X274000000Y-102200000D03*
X274000000Y-98900000D03*
%TD*%
%TO.C,D16*%
X130000000Y-102200000D03*
X130000000Y-98900000D03*
%TD*%
%TO.C,D52*%
X264950000Y-108750000D03*
X264950000Y-112050000D03*
%TD*%
%TO.C,D59*%
X300950000Y-153150000D03*
X300950000Y-149850000D03*
%TD*%
%TO.C,D5*%
X93950000Y-159650000D03*
X93950000Y-162950000D03*
%TD*%
%TO.C,D67*%
X318950000Y-119150000D03*
X318950000Y-115850000D03*
%TD*%
%TO.C,D23*%
X161450000Y-125650000D03*
X161450000Y-128950000D03*
%TD*%
%TO.C,D13*%
X125450000Y-125650000D03*
X125450000Y-128950000D03*
%TD*%
%TO.C,D28*%
X179450000Y-136150000D03*
X179450000Y-132850000D03*
%TD*%
%TO.C,D10*%
X111950000Y-170150000D03*
X111950000Y-166850000D03*
%TD*%
%TO.C,D46*%
X238000000Y-102200000D03*
X238000000Y-98900000D03*
%TD*%
%TO.C,D40*%
X260450000Y-170150000D03*
X260450000Y-166850000D03*
%TD*%
%TO.C,D47*%
X246950000Y-119150000D03*
X246950000Y-115850000D03*
%TD*%
%TO.C,D7*%
X102950000Y-119150000D03*
X102950000Y-115850000D03*
%TD*%
%TO.C,D18*%
X143450000Y-136150000D03*
X143450000Y-132850000D03*
%TD*%
%TO.C,D12*%
X120950000Y-108750000D03*
X120950000Y-112050000D03*
%TD*%
%TO.C,D49*%
X260450000Y-153150000D03*
X260450000Y-149850000D03*
%TD*%
%TO.C,D48*%
X251450000Y-136150000D03*
X251450000Y-132850000D03*
%TD*%
%TO.C,D41*%
X220000000Y-91700000D03*
X220000000Y-95000000D03*
%TD*%
%TO.C,D42*%
X228950000Y-108750000D03*
X228950000Y-112050000D03*
%TD*%
%TO.C,D21*%
X148000000Y-91700000D03*
X148000000Y-95000000D03*
%TD*%
%TO.C,D68*%
X358850000Y-99000000D03*
X358850000Y-95700000D03*
%TD*%
%TO.C,D32*%
X192950000Y-108750000D03*
X192950000Y-112050000D03*
%TD*%
%TO.C,D2*%
X80450000Y-108750000D03*
X80450000Y-112050000D03*
%TD*%
%TO.C,D36*%
X202000000Y-102200000D03*
X202000000Y-98900000D03*
%TD*%
%TO.C,D55*%
X322950000Y-159650000D03*
X322950000Y-162950000D03*
%TD*%
%TO.C,D31*%
X184000000Y-91700000D03*
X184000000Y-95000000D03*
%TD*%
%TO.C,D34*%
X206450000Y-142650000D03*
X206450000Y-145950000D03*
%TD*%
%TO.C,D3*%
X84950000Y-125650000D03*
X84950000Y-128950000D03*
%TD*%
%TO.C,D6*%
X94000000Y-102200000D03*
X94000000Y-98900000D03*
%TD*%
%TO.C,D66*%
X314500000Y-102200000D03*
X314500000Y-98900000D03*
%TD*%
%TO.C,D54*%
X278450000Y-142650000D03*
X278450000Y-145950000D03*
%TD*%
%TO.C,D24*%
X170450000Y-142650000D03*
X170450000Y-145950000D03*
%TD*%
%TO.C,D26*%
X166000000Y-102200000D03*
X166000000Y-98900000D03*
%TD*%
M02*
