%TF.GenerationSoftware,KiCad,Pcbnew,(6.0.1)*%
%TF.CreationDate,2022-02-09T02:20:10+01:00*%
%TF.ProjectId,choc660,63686f63-3636-4302-9e6b-696361645f70,rev?*%
%TF.SameCoordinates,Original*%
%TF.FileFunction,Copper,L1,Top*%
%TF.FilePolarity,Positive*%
%FSLAX46Y46*%
G04 Gerber Fmt 4.6, Leading zero omitted, Abs format (unit mm)*
G04 Created by KiCad (PCBNEW (6.0.1)) date 2022-02-09 02:20:10*
%MOMM*%
%LPD*%
G01*
G04 APERTURE LIST*
%TA.AperFunction,ComponentPad*%
%ADD10C,2.000000*%
%TD*%
%TA.AperFunction,ComponentPad*%
%ADD11R,1.752600X1.752600*%
%TD*%
%TA.AperFunction,ComponentPad*%
%ADD12C,1.752600*%
%TD*%
%TA.AperFunction,Conductor*%
%ADD13C,0.254000*%
%TD*%
G04 APERTURE END LIST*
D10*
%TO.P,SW26,1,1*%
%TO.N,Net-(D26-Pad2)*%
X162797500Y-95700000D03*
%TO.P,SW26,2,2*%
%TO.N,C2*%
X157797500Y-93600000D03*
%TD*%
%TO.P,SW18,1,1*%
%TO.N,Net-(D18-Pad2)*%
X140297500Y-129700000D03*
%TO.P,SW18,2,2*%
%TO.N,C1*%
X135297500Y-127600000D03*
%TD*%
%TO.P,SW25,1,1*%
%TO.N,Net-(D25-Pad2)*%
X176297500Y-163700000D03*
%TO.P,SW25,2,2*%
%TO.N,C2*%
X171297500Y-161600000D03*
%TD*%
%TO.P,SW54,1,1*%
%TO.N,Net-(D54-Pad2)*%
X275297500Y-146700000D03*
%TO.P,SW54,2,2*%
%TO.N,C5*%
X270297500Y-144600000D03*
%TD*%
%TO.P,SW45,1,1*%
%TO.N,Net-(D45-Pad2)*%
X275297500Y-163700000D03*
%TO.P,SW45,2,2*%
%TO.N,C4*%
X270297500Y-161600000D03*
%TD*%
%TO.P,SW63,1,1*%
%TO.N,Net-(D63-Pad2)*%
X306797500Y-129700000D03*
%TO.P,SW63,2,2*%
%TO.N,C6*%
X301797500Y-127600000D03*
%TD*%
%TO.P,SW55,1,1*%
%TO.N,Net-(D55-Pad2)*%
X319797500Y-163700000D03*
%TO.P,SW55,2,2*%
%TO.N,C5*%
X314797500Y-161600000D03*
%TD*%
%TO.P,SW35,1,1*%
%TO.N,Net-(D35-Pad2)*%
X234797500Y-163700000D03*
%TO.P,SW35,2,2*%
%TO.N,C3*%
X229797500Y-161600000D03*
%TD*%
%TO.P,SW61,1,1*%
%TO.N,Net-(D61-Pad2)*%
X288797500Y-95700000D03*
%TO.P,SW61,2,2*%
%TO.N,C6*%
X283797500Y-93600000D03*
%TD*%
%TO.P,SW64,1,1*%
%TO.N,Net-(D64-Pad2)*%
X337797500Y-146700000D03*
%TO.P,SW64,2,2*%
%TO.N,C6*%
X332797500Y-144600000D03*
%TD*%
%TO.P,SW11,1,1*%
%TO.N,Net-(D11-Pad2)*%
X108797500Y-95700000D03*
%TO.P,SW11,2,2*%
%TO.N,C1*%
X103797500Y-93600000D03*
%TD*%
%TO.P,SW49,1,1*%
%TO.N,Net-(D49-Pad2)*%
X257297500Y-146700000D03*
%TO.P,SW49,2,2*%
%TO.N,C4*%
X252297500Y-144600000D03*
%TD*%
%TO.P,SW19,1,1*%
%TO.N,Net-(D19-Pad2)*%
X149297500Y-146700000D03*
%TO.P,SW19,2,2*%
%TO.N,C1*%
X144297500Y-144600000D03*
%TD*%
%TO.P,SW31,1,1*%
%TO.N,Net-(D31-Pad2)*%
X180797500Y-95700000D03*
%TO.P,SW31,2,2*%
%TO.N,C3*%
X175797500Y-93600000D03*
%TD*%
%TO.P,SW17,1,1*%
%TO.N,Net-(D17-Pad2)*%
X135797500Y-112700000D03*
%TO.P,SW17,2,2*%
%TO.N,C1*%
X130797500Y-110600000D03*
%TD*%
%TO.P,SW16,1,1*%
%TO.N,Net-(D16-Pad2)*%
X126797500Y-95700000D03*
%TO.P,SW16,2,2*%
%TO.N,C1*%
X121797500Y-93600000D03*
%TD*%
%TO.P,SW66,1,1*%
%TO.N,Net-(D66-Pad2)*%
X311297500Y-95700000D03*
%TO.P,SW66,2,2*%
%TO.N,C6*%
X306297500Y-93600000D03*
%TD*%
%TO.P,SW32,1,1*%
%TO.N,Net-(D32-Pad2)*%
X189797500Y-112700000D03*
%TO.P,SW32,2,2*%
%TO.N,C3*%
X184797500Y-110600000D03*
%TD*%
%TO.P,SW62,1,1*%
%TO.N,Net-(D62-Pad2)*%
X297797500Y-112700000D03*
%TO.P,SW62,2,2*%
%TO.N,C6*%
X292797500Y-110600000D03*
%TD*%
%TO.P,SW47,1,1*%
%TO.N,Net-(D47-Pad2)*%
X243797500Y-112700000D03*
%TO.P,SW47,2,2*%
%TO.N,C4*%
X238797500Y-110600000D03*
%TD*%
%TO.P,SW34,1,1*%
%TO.N,Net-(D34-Pad2)*%
X203297500Y-146700000D03*
%TO.P,SW34,2,2*%
%TO.N,C3*%
X198297500Y-144600000D03*
%TD*%
%TO.P,SW52,1,1*%
%TO.N,Net-(D52-Pad2)*%
X261797500Y-112700000D03*
%TO.P,SW52,2,2*%
%TO.N,C5*%
X256797500Y-110600000D03*
%TD*%
%TO.P,SW20,1,1*%
%TO.N,Net-(D20-Pad2)*%
X149297500Y-163700000D03*
%TO.P,SW20,2,2*%
%TO.N,C1*%
X144297500Y-161600000D03*
%TD*%
%TO.P,SW38,1,1*%
%TO.N,Net-(D38-Pad2)*%
X212297500Y-129700000D03*
%TO.P,SW38,2,2*%
%TO.N,C3*%
X207297500Y-127600000D03*
%TD*%
%TO.P,SW56,1,1*%
%TO.N,Net-(D56-Pad2)*%
X270797500Y-95700000D03*
%TO.P,SW56,2,2*%
%TO.N,C5*%
X265797500Y-93600000D03*
%TD*%
%TO.P,SW2,1,1*%
%TO.N,Net-(D2-Pad2)*%
X77297500Y-112700000D03*
%TO.P,SW2,2,2*%
%TO.N,C0*%
X72297500Y-110600000D03*
%TD*%
%TO.P,SW43,1,1*%
%TO.N,Net-(D43-Pad2)*%
X230297500Y-129700000D03*
%TO.P,SW43,2,2*%
%TO.N,C4*%
X225297500Y-127600000D03*
%TD*%
%TO.P,SW7,1,1*%
%TO.N,Net-(D7-Pad2)*%
X99797500Y-112700000D03*
%TO.P,SW7,2,2*%
%TO.N,C0*%
X94797500Y-110600000D03*
%TD*%
%TO.P,SW12,1,1*%
%TO.N,Net-(D12-Pad2)*%
X117797500Y-112700000D03*
%TO.P,SW12,2,2*%
%TO.N,C1*%
X112797500Y-110600000D03*
%TD*%
%TO.P,SW58,1,1*%
%TO.N,Net-(D58-Pad2)*%
X284297500Y-129700000D03*
%TO.P,SW58,2,2*%
%TO.N,C5*%
X279297500Y-127600000D03*
%TD*%
%TO.P,SW22,1,1*%
%TO.N,Net-(D22-Pad2)*%
X153797500Y-112700000D03*
%TO.P,SW22,2,2*%
%TO.N,C2*%
X148797500Y-110600000D03*
%TD*%
%TO.P,SW1,1,1*%
%TO.N,Net-(D1-Pad2)*%
X72797500Y-95700000D03*
%TO.P,SW1,2,2*%
%TO.N,C0*%
X67797500Y-93600000D03*
%TD*%
%TO.P,SW10,1,1*%
%TO.N,Net-(D10-Pad2)*%
X108797500Y-163700000D03*
%TO.P,SW10,2,2*%
%TO.N,C0*%
X103797500Y-161600000D03*
%TD*%
%TO.P,SW24,1,1*%
%TO.N,Net-(D24-Pad2)*%
X167297500Y-146700000D03*
%TO.P,SW24,2,2*%
%TO.N,C2*%
X162297500Y-144600000D03*
%TD*%
%TO.P,SW30,1,1*%
%TO.N,Net-(D30-Pad2)*%
X207797500Y-163700000D03*
%TO.P,SW30,2,2*%
%TO.N,C2*%
X202797500Y-161600000D03*
%TD*%
%TO.P,SW67,1,1*%
%TO.N,Net-(D67-Pad2)*%
X315797500Y-112700000D03*
%TO.P,SW67,2,2*%
%TO.N,C6*%
X310797500Y-110600000D03*
%TD*%
%TO.P,SW44,1,1*%
%TO.N,Net-(D44-Pad2)*%
X239297500Y-146700000D03*
%TO.P,SW44,2,2*%
%TO.N,C4*%
X234297500Y-144600000D03*
%TD*%
%TO.P,SW50,1,1*%
%TO.N,Net-(D50-Pad2)*%
X293297500Y-163700000D03*
%TO.P,SW50,2,2*%
%TO.N,C4*%
X288297500Y-161600000D03*
%TD*%
%TO.P,SW29,1,1*%
%TO.N,Net-(D29-Pad2)*%
X185297500Y-146700000D03*
%TO.P,SW29,2,2*%
%TO.N,C2*%
X180297500Y-144600000D03*
%TD*%
%TO.P,SW28,1,1*%
%TO.N,Net-(D28-Pad2)*%
X176297500Y-129700000D03*
%TO.P,SW28,2,2*%
%TO.N,C2*%
X171297500Y-127600000D03*
%TD*%
%TO.P,SW40,1,1*%
%TO.N,Net-(D40-Pad2)*%
X257297500Y-163700000D03*
%TO.P,SW40,2,2*%
%TO.N,C3*%
X252297500Y-161600000D03*
%TD*%
%TO.P,SW13,1,1*%
%TO.N,Net-(D13-Pad2)*%
X122297500Y-129700000D03*
%TO.P,SW13,2,2*%
%TO.N,C1*%
X117297500Y-127600000D03*
%TD*%
%TO.P,SW68,1,1*%
%TO.N,Net-(D68-Pad2)*%
X355797500Y-95700000D03*
%TO.P,SW68,2,2*%
%TO.N,C6*%
X350797500Y-93600000D03*
%TD*%
%TO.P,SW59,1,1*%
%TO.N,Net-(D59-Pad2)*%
X297797500Y-146700000D03*
%TO.P,SW59,2,2*%
%TO.N,C5*%
X292797500Y-144600000D03*
%TD*%
%TO.P,SW37,1,1*%
%TO.N,Net-(D37-Pad2)*%
X207797500Y-112700000D03*
%TO.P,SW37,2,2*%
%TO.N,C3*%
X202797500Y-110600000D03*
%TD*%
%TO.P,SW3,1,1*%
%TO.N,Net-(D3-Pad2)*%
X81797500Y-129700000D03*
%TO.P,SW3,2,2*%
%TO.N,C0*%
X76797500Y-127600000D03*
%TD*%
%TO.P,SW53,1,1*%
%TO.N,Net-(D53-Pad2)*%
X266297500Y-129700000D03*
%TO.P,SW53,2,2*%
%TO.N,C5*%
X261297500Y-127600000D03*
%TD*%
%TO.P,SW60,1,1*%
%TO.N,Net-(D60-Pad2)*%
X337797500Y-163700000D03*
%TO.P,SW60,2,2*%
%TO.N,C5*%
X332797500Y-161600000D03*
%TD*%
%TO.P,SW6,1,1*%
%TO.N,Net-(D6-Pad2)*%
X90797500Y-95700000D03*
%TO.P,SW6,2,2*%
%TO.N,C0*%
X85797500Y-93600000D03*
%TD*%
%TO.P,SW51,1,1*%
%TO.N,Net-(D51-Pad2)*%
X252797500Y-95700000D03*
%TO.P,SW51,2,2*%
%TO.N,C5*%
X247797500Y-93600000D03*
%TD*%
%TO.P,SW46,1,1*%
%TO.N,Net-(D46-Pad2)*%
X234797500Y-95700000D03*
%TO.P,SW46,2,2*%
%TO.N,C4*%
X229797500Y-93600000D03*
%TD*%
%TO.P,SW57,1,1*%
%TO.N,Net-(D57-Pad2)*%
X279797500Y-112700000D03*
%TO.P,SW57,2,2*%
%TO.N,C5*%
X274797500Y-110600000D03*
%TD*%
%TO.P,SW33,1,1*%
%TO.N,Net-(D33-Pad2)*%
X194297500Y-129700000D03*
%TO.P,SW33,2,2*%
%TO.N,C3*%
X189297500Y-127600000D03*
%TD*%
%TO.P,SW42,1,1*%
%TO.N,Net-(D42-Pad2)*%
X225797500Y-112700000D03*
%TO.P,SW42,2,2*%
%TO.N,C4*%
X220797500Y-110600000D03*
%TD*%
%TO.P,SW27,1,1*%
%TO.N,Net-(D27-Pad2)*%
X171797500Y-112700000D03*
%TO.P,SW27,2,2*%
%TO.N,C2*%
X166797500Y-110600000D03*
%TD*%
%TO.P,SW36,1,1*%
%TO.N,Net-(D36-Pad2)*%
X198797500Y-95700000D03*
%TO.P,SW36,2,2*%
%TO.N,C3*%
X193797500Y-93600000D03*
%TD*%
%TO.P,SW5,1,1*%
%TO.N,Net-(D5-Pad2)*%
X90797500Y-163700000D03*
%TO.P,SW5,2,2*%
%TO.N,C0*%
X85797500Y-161600000D03*
%TD*%
%TO.P,SW14,1,1*%
%TO.N,Net-(D14-Pad2)*%
X131297500Y-146700000D03*
%TO.P,SW14,2,2*%
%TO.N,C1*%
X126297500Y-144600000D03*
%TD*%
%TO.P,SW8,1,1*%
%TO.N,Net-(D8-Pad2)*%
X104297500Y-129700000D03*
%TO.P,SW8,2,2*%
%TO.N,C0*%
X99297500Y-127600000D03*
%TD*%
%TO.P,SW48,1,1*%
%TO.N,Net-(D48-Pad2)*%
X248297500Y-129700000D03*
%TO.P,SW48,2,2*%
%TO.N,C4*%
X243297500Y-127600000D03*
%TD*%
%TO.P,SW9,1,1*%
%TO.N,Net-(D9-Pad2)*%
X113297500Y-146700000D03*
%TO.P,SW9,2,2*%
%TO.N,C0*%
X108297500Y-144600000D03*
%TD*%
%TO.P,SW69,1,1*%
%TO.N,Net-(D69-Pad2)*%
X355797500Y-112700000D03*
%TO.P,SW69,2,2*%
%TO.N,C6*%
X350797500Y-110600000D03*
%TD*%
D11*
%TO.P,U1,1,TX0/PD3*%
%TO.N,C0*%
X324677500Y-95016750D03*
D12*
%TO.P,U1,2,RX1/PD2*%
%TO.N,C1*%
X324677500Y-97556750D03*
%TO.P,U1,3,GND*%
%TO.N,unconnected-(U1-Pad3)*%
X324677500Y-100096750D03*
%TO.P,U1,4,GND*%
%TO.N,unconnected-(U1-Pad4)*%
X324677500Y-102636750D03*
%TO.P,U1,5,2/PD1*%
%TO.N,C2*%
X324677500Y-105176750D03*
%TO.P,U1,6,3/PD0*%
%TO.N,C3*%
X324677500Y-107716750D03*
%TO.P,U1,7,4/PD4*%
%TO.N,C4*%
X324677500Y-110256750D03*
%TO.P,U1,8,5/PC6*%
%TO.N,C5*%
X324677500Y-112796750D03*
%TO.P,U1,9,6/PD7*%
%TO.N,C6*%
X324677500Y-115336750D03*
%TO.P,U1,10,7/PE6*%
%TO.N,R0*%
X324677500Y-117876750D03*
%TO.P,U1,11,8/PB4*%
%TO.N,R1*%
X324677500Y-120416750D03*
%TO.P,U1,12,9/PB5*%
%TO.N,R2*%
X324906100Y-122956750D03*
%TO.P,U1,13,10/PB6*%
%TO.N,R3*%
X339917500Y-122956750D03*
%TO.P,U1,14,16/PB2*%
%TO.N,R4*%
X339917500Y-120416750D03*
%TO.P,U1,15,14/PB3*%
%TO.N,R5*%
X339917500Y-117876750D03*
%TO.P,U1,16,15/PB1*%
%TO.N,R6*%
X339917500Y-115336750D03*
%TO.P,U1,17,A0/PF7*%
%TO.N,R7*%
X339917500Y-112796750D03*
%TO.P,U1,18,A1/PF6*%
%TO.N,R8*%
X339917500Y-110256750D03*
%TO.P,U1,19,A2/PF5*%
%TO.N,R9*%
X339917500Y-107716750D03*
%TO.P,U1,20,A3/PF4*%
%TO.N,unconnected-(U1-Pad20)*%
X339917500Y-105176750D03*
%TO.P,U1,21,VCC*%
%TO.N,unconnected-(U1-Pad21)*%
X339917500Y-102636750D03*
%TO.P,U1,22,RST*%
%TO.N,unconnected-(U1-Pad22)*%
X339917500Y-100096750D03*
%TO.P,U1,23,GND*%
%TO.N,unconnected-(U1-Pad23)*%
X339917500Y-97556750D03*
%TO.P,U1,24,B0*%
%TO.N,unconnected-(U1-Pad24)*%
X339917500Y-95016750D03*
%TO.P,U1,25,B7*%
%TO.N,unconnected-(U1-Pad25)*%
X327217500Y-122956750D03*
%TO.P,U1,26,D5*%
%TO.N,unconnected-(U1-Pad26)*%
X329757500Y-122956750D03*
%TO.P,U1,27,C7*%
%TO.N,unconnected-(U1-Pad27)*%
X332297500Y-122956750D03*
%TO.P,U1,28,F1*%
%TO.N,unconnected-(U1-Pad28)*%
X334837500Y-122956750D03*
%TO.P,U1,29,F0*%
%TO.N,unconnected-(U1-Pad29)*%
X337377500Y-122956750D03*
%TD*%
D10*
%TO.P,SW21,1,1*%
%TO.N,Net-(D21-Pad2)*%
X144797500Y-95700000D03*
%TO.P,SW21,2,2*%
%TO.N,C2*%
X139797500Y-93600000D03*
%TD*%
%TO.P,SW41,1,1*%
%TO.N,Net-(D41-Pad2)*%
X216797500Y-95700000D03*
%TO.P,SW41,2,2*%
%TO.N,C4*%
X211797500Y-93600000D03*
%TD*%
%TO.P,SW39,1,1*%
%TO.N,Net-(D39-Pad2)*%
X221297500Y-146700000D03*
%TO.P,SW39,2,2*%
%TO.N,C3*%
X216297500Y-144600000D03*
%TD*%
%TO.P,SW23,1,1*%
%TO.N,Net-(D23-Pad2)*%
X158297500Y-129700000D03*
%TO.P,SW23,2,2*%
%TO.N,C2*%
X153297500Y-127600000D03*
%TD*%
%TO.P,SW15,1,1*%
%TO.N,Net-(D15-Pad2)*%
X126797500Y-163700000D03*
%TO.P,SW15,2,2*%
%TO.N,C1*%
X121797500Y-161600000D03*
%TD*%
%TO.P,SW65,1,1*%
%TO.N,Net-(D65-Pad2)*%
X355797500Y-163700000D03*
%TO.P,SW65,2,2*%
%TO.N,C6*%
X350797500Y-161600000D03*
%TD*%
%TO.P,SW4,1,1*%
%TO.N,Net-(D4-Pad2)*%
X90797500Y-146700000D03*
%TO.P,SW4,2,2*%
%TO.N,C0*%
X85797500Y-144600000D03*
%TD*%
D13*
%TO.N,C0*%
X94270480Y-85127020D02*
X85797500Y-93600000D01*
X312889144Y-85127020D02*
X94270480Y-85127020D01*
X324677500Y-95016750D02*
X322778874Y-95016750D01*
X322778874Y-95016750D02*
X312889144Y-85127020D01*
%TO.N,C6*%
X341250000Y-124750000D02*
X323200000Y-124750000D01*
X322900000Y-124450000D02*
X322900000Y-117114250D01*
X341675000Y-114675000D02*
X341675000Y-124325000D01*
X350797500Y-110600000D02*
X345750000Y-110600000D01*
X345750000Y-110600000D02*
X341675000Y-114675000D01*
X341675000Y-124325000D02*
X341250000Y-124750000D01*
X323200000Y-124750000D02*
X322900000Y-124450000D01*
X322900000Y-117114250D02*
X324677500Y-115336750D01*
%TO.N,C3*%
X192100000Y-130402500D02*
X192100000Y-138402500D01*
X192100000Y-138402500D02*
X198297500Y-144600000D01*
%TO.N,C1*%
X117297500Y-127600000D02*
X109850000Y-120152500D01*
X120350000Y-130652500D02*
X117297500Y-127600000D01*
%TO.N,C6*%
X314075000Y-118525000D02*
X314075000Y-113650000D01*
X305000000Y-127600000D02*
X314075000Y-118525000D01*
X314075000Y-113650000D02*
X313847500Y-113650000D01*
X313847500Y-113650000D02*
X310797500Y-110600000D01*
X301797500Y-127600000D02*
X305000000Y-127600000D01*
X345175000Y-161600000D02*
X350797500Y-161600000D01*
X335450000Y-147252500D02*
X335450000Y-151875000D01*
X332797500Y-144600000D02*
X335450000Y-147252500D01*
X335450000Y-151875000D02*
X345175000Y-161600000D01*
X304750000Y-130552500D02*
X304750000Y-134125000D01*
X301797500Y-127600000D02*
X304750000Y-130552500D01*
X304750000Y-134125000D02*
X315225000Y-144600000D01*
X315225000Y-144600000D02*
X332797500Y-144600000D01*
X295525000Y-121327500D02*
X301797500Y-127600000D01*
X295525000Y-113327500D02*
X295525000Y-121327500D01*
X292797500Y-110600000D02*
X295525000Y-113327500D01*
X309175000Y-96477500D02*
X309175000Y-108977500D01*
X309175000Y-108977500D02*
X310797500Y-110600000D01*
X306297500Y-93600000D02*
X309175000Y-96477500D01*
X286950000Y-104752500D02*
X292797500Y-110600000D01*
X283797500Y-93600000D02*
X286950000Y-96752500D01*
X286950000Y-96752500D02*
X286950000Y-104752500D01*
%TO.N,C5*%
X268850000Y-104652500D02*
X274797500Y-110600000D01*
X268850000Y-96652500D02*
X268850000Y-104652500D01*
X265797500Y-93600000D02*
X268850000Y-96652500D01*
X314797500Y-161600000D02*
X332797500Y-161600000D01*
X306100000Y-161600000D02*
X314797500Y-161600000D01*
X295725000Y-151225000D02*
X306100000Y-161600000D01*
X295725000Y-147527500D02*
X295725000Y-151225000D01*
X292797500Y-144600000D02*
X295725000Y-147527500D01*
X282050000Y-130352500D02*
X282050000Y-134000000D01*
X279297500Y-127600000D02*
X282050000Y-130352500D01*
X282050000Y-134000000D02*
X282197500Y-134000000D01*
X282197500Y-134000000D02*
X292797500Y-144600000D01*
X272075000Y-120377500D02*
X279297500Y-127600000D01*
X272075000Y-113322500D02*
X272075000Y-120377500D01*
X274797500Y-110600000D02*
X272075000Y-113322500D01*
X264375000Y-138677500D02*
X270297500Y-144600000D01*
X264375000Y-130677500D02*
X264375000Y-138677500D01*
X261297500Y-127600000D02*
X264375000Y-130677500D01*
X270297500Y-144600000D02*
X292797500Y-144600000D01*
%TO.N,C4*%
X243297500Y-127600000D02*
X246350000Y-130652500D01*
X246350000Y-130652500D02*
X246350000Y-138652500D01*
X246350000Y-138652500D02*
X252297500Y-144600000D01*
%TO.N,C5*%
X253575000Y-113822500D02*
X253575000Y-119877500D01*
X253575000Y-119877500D02*
X261297500Y-127600000D01*
X256797500Y-110600000D02*
X253575000Y-113822500D01*
X250700000Y-96502500D02*
X250700000Y-104502500D01*
X247797500Y-93600000D02*
X250700000Y-96502500D01*
X250700000Y-104502500D02*
X256797500Y-110600000D01*
%TO.N,C4*%
X270297500Y-161600000D02*
X288297500Y-161600000D01*
X255575000Y-152025000D02*
X265150000Y-161600000D01*
X255575000Y-147877500D02*
X255575000Y-152025000D01*
X265150000Y-161600000D02*
X270297500Y-161600000D01*
X252297500Y-144600000D02*
X255575000Y-147877500D01*
X234297500Y-144600000D02*
X252297500Y-144600000D01*
X228250000Y-138552500D02*
X234297500Y-144600000D01*
X228250000Y-130552500D02*
X228250000Y-138552500D01*
X225297500Y-127600000D02*
X228250000Y-130552500D01*
X235950000Y-120252500D02*
X243297500Y-127600000D01*
X238797500Y-110600000D02*
X235950000Y-113447500D01*
X235950000Y-113447500D02*
X235950000Y-120252500D01*
X217850000Y-120152500D02*
X225297500Y-127600000D01*
X217850000Y-113547500D02*
X217850000Y-120152500D01*
X220797500Y-110600000D02*
X217850000Y-113547500D01*
X232800000Y-96602500D02*
X232800000Y-104602500D01*
X229797500Y-93600000D02*
X232800000Y-96602500D01*
X232800000Y-104602500D02*
X238797500Y-110600000D01*
X214850000Y-96652500D02*
X214850000Y-104652500D01*
X214850000Y-104652500D02*
X220797500Y-110600000D01*
X211797500Y-93600000D02*
X214850000Y-96652500D01*
%TO.N,C3*%
X193797500Y-93600000D02*
X196775000Y-96577500D01*
X196775000Y-96577500D02*
X196775000Y-104577500D01*
X196775000Y-104577500D02*
X202797500Y-110600000D01*
X199925000Y-120227500D02*
X207297500Y-127600000D01*
X199925000Y-113472500D02*
X199925000Y-120227500D01*
X202797500Y-110600000D02*
X199925000Y-113472500D01*
X210450000Y-138752500D02*
X216297500Y-144600000D01*
X210450000Y-130752500D02*
X210450000Y-138752500D01*
X207297500Y-127600000D02*
X210450000Y-130752500D01*
X216297500Y-144600000D02*
X198297500Y-144600000D01*
X229797500Y-161600000D02*
X252297500Y-161600000D01*
X208500000Y-161600000D02*
X229797500Y-161600000D01*
X201675000Y-147977500D02*
X201675000Y-154775000D01*
X201675000Y-154775000D02*
X208500000Y-161600000D01*
X198297500Y-144600000D02*
X201675000Y-147977500D01*
X189297500Y-127600000D02*
X192100000Y-130402500D01*
X181975000Y-120277500D02*
X189297500Y-127600000D01*
X181975000Y-113422500D02*
X181975000Y-120277500D01*
X184797500Y-110600000D02*
X181975000Y-113422500D01*
X178825000Y-104627500D02*
X184797500Y-110600000D01*
X178825000Y-96627500D02*
X178825000Y-104627500D01*
X175797500Y-93600000D02*
X178825000Y-96627500D01*
%TO.N,C2*%
X160950000Y-96752500D02*
X157797500Y-93600000D01*
X160950000Y-104752500D02*
X160950000Y-96752500D01*
X166797500Y-110600000D02*
X160950000Y-104752500D01*
X163825000Y-120127500D02*
X171297500Y-127600000D01*
X166797500Y-110600000D02*
X163825000Y-113572500D01*
X163825000Y-113572500D02*
X163825000Y-120127500D01*
X174200000Y-130502500D02*
X174200000Y-138502500D01*
X174200000Y-138502500D02*
X180297500Y-144600000D01*
X171297500Y-127600000D02*
X174200000Y-130502500D01*
X183650000Y-147952500D02*
X180297500Y-144600000D01*
X183650000Y-152625000D02*
X183650000Y-147952500D01*
X187000000Y-155975000D02*
X183650000Y-152625000D01*
X196537936Y-155975000D02*
X187000000Y-155975000D01*
X202162936Y-161600000D02*
X196537936Y-155975000D01*
X202797500Y-161600000D02*
X202162936Y-161600000D01*
X171297500Y-161600000D02*
X202797500Y-161600000D01*
X165500000Y-155802500D02*
X171297500Y-161600000D01*
X164374021Y-146724021D02*
X165500000Y-147850000D01*
X165500000Y-147850000D02*
X165500000Y-155802500D01*
X164374021Y-146676521D02*
X164374021Y-146724021D01*
X162297500Y-144600000D02*
X164374021Y-146676521D01*
X156400000Y-130702500D02*
X156400000Y-138702500D01*
X156400000Y-138702500D02*
X162297500Y-144600000D01*
X153297500Y-127600000D02*
X156400000Y-130702500D01*
X146275000Y-113122500D02*
X146275000Y-120577500D01*
X148797500Y-110600000D02*
X146275000Y-113122500D01*
X146275000Y-120577500D02*
X153297500Y-127600000D01*
X142600000Y-104402500D02*
X148797500Y-110600000D01*
X142600000Y-96402500D02*
X142600000Y-104402500D01*
X139797500Y-93600000D02*
X142600000Y-96402500D01*
%TO.N,C1*%
X125175000Y-96977500D02*
X121797500Y-93600000D01*
X125175000Y-104977500D02*
X125175000Y-96977500D01*
X130797500Y-110600000D02*
X125175000Y-104977500D01*
X127925000Y-120227500D02*
X135297500Y-127600000D01*
X127925000Y-113472500D02*
X127925000Y-120227500D01*
X130797500Y-110600000D02*
X127925000Y-113472500D01*
X138575000Y-138900000D02*
X138575000Y-130877500D01*
X139102500Y-139427500D02*
X138575000Y-138900000D01*
X138575000Y-130877500D02*
X135297500Y-127600000D01*
X139125000Y-139427500D02*
X139102500Y-139427500D01*
X144297500Y-144600000D02*
X139125000Y-139427500D01*
X148225000Y-148527500D02*
X144297500Y-144600000D01*
X148225000Y-157672500D02*
X148225000Y-148527500D01*
X144297500Y-161600000D02*
X148225000Y-157672500D01*
X121797500Y-161600000D02*
X144297500Y-161600000D01*
X129325000Y-154072500D02*
X121797500Y-161600000D01*
X126297500Y-144600000D02*
X129325000Y-147627500D01*
X129325000Y-147627500D02*
X129325000Y-154072500D01*
X120350000Y-138652500D02*
X126297500Y-144600000D01*
X120350000Y-130652500D02*
X120350000Y-138652500D01*
X109850000Y-113547500D02*
X109850000Y-120152500D01*
X112797500Y-110600000D02*
X109850000Y-113547500D01*
X106625000Y-96427500D02*
X106625000Y-104427500D01*
X106625000Y-104427500D02*
X112797500Y-110600000D01*
X103797500Y-93600000D02*
X106625000Y-96427500D01*
%TO.N,C0*%
X88675000Y-104477500D02*
X94797500Y-110600000D01*
X88675000Y-96150000D02*
X88675000Y-104477500D01*
X86025000Y-93600000D02*
X86075000Y-93550000D01*
X86075000Y-93550000D02*
X88675000Y-96150000D01*
X85797500Y-93600000D02*
X86025000Y-93600000D01*
X91800000Y-120102500D02*
X99297500Y-127600000D01*
X91800000Y-113597500D02*
X91800000Y-120102500D01*
X94797500Y-110600000D02*
X91800000Y-113597500D01*
X101975000Y-138277500D02*
X108297500Y-144600000D01*
X101975000Y-130277500D02*
X101975000Y-138277500D01*
X99297500Y-127600000D02*
X101975000Y-130277500D01*
X110775000Y-147077500D02*
X108297500Y-144600000D01*
X110775000Y-154600000D02*
X110775000Y-147077500D01*
X106220979Y-159154021D02*
X110775000Y-154600000D01*
X106220979Y-159176521D02*
X106220979Y-159154021D01*
X103797500Y-161600000D02*
X106220979Y-159176521D01*
X85797500Y-161600000D02*
X103797500Y-161600000D01*
X83720979Y-159523479D02*
X85797500Y-161600000D01*
X83720979Y-146676521D02*
X83720979Y-159523479D01*
X85797500Y-144600000D02*
X83720979Y-146676521D01*
X79550000Y-138352500D02*
X85797500Y-144600000D01*
X76797500Y-127600000D02*
X79550000Y-130352500D01*
X79550000Y-130352500D02*
X79550000Y-138352500D01*
X69275000Y-113622500D02*
X69275000Y-120077500D01*
X69275000Y-120077500D02*
X76797500Y-127600000D01*
X72297500Y-110600000D02*
X69275000Y-113622500D01*
X65025000Y-103327500D02*
X72297500Y-110600000D01*
X67797500Y-93600000D02*
X65025000Y-96372500D01*
X65025000Y-96372500D02*
X65025000Y-103327500D01*
%TO.N,C1*%
X121797500Y-93600000D02*
X129816960Y-85580540D01*
X129816960Y-85580540D02*
X312701290Y-85580540D01*
X312701290Y-85580540D02*
X324677500Y-97556750D01*
%TO.N,C2*%
X157797500Y-93600000D02*
X165363440Y-86034060D01*
X312513436Y-86034060D02*
X322875000Y-96395624D01*
X322875000Y-103374250D02*
X324677500Y-105176750D01*
X322875000Y-96395624D02*
X322875000Y-103374250D01*
X165363440Y-86034060D02*
X312513436Y-86034060D01*
%TO.N,C3*%
X200909920Y-86487580D02*
X312325582Y-86487580D01*
X312325582Y-86487580D02*
X322421480Y-96583478D01*
X193797500Y-93600000D02*
X200909920Y-86487580D01*
X322421480Y-105460730D02*
X324677500Y-107716750D01*
X322421480Y-96583478D02*
X322421480Y-105460730D01*
%TO.N,C4*%
X229797500Y-93600000D02*
X236456400Y-86941100D01*
X321950000Y-96825000D02*
X321950000Y-107529250D01*
X312066100Y-86941100D02*
X321950000Y-96825000D01*
X236456400Y-86941100D02*
X312066100Y-86941100D01*
X321950000Y-107529250D02*
X324677500Y-110256750D01*
%TO.N,C5*%
X321496480Y-109615730D02*
X324677500Y-112796750D01*
X321496480Y-97012854D02*
X321496480Y-109615730D01*
X311878246Y-87394620D02*
X321496480Y-97012854D01*
X265797500Y-93600000D02*
X272002880Y-87394620D01*
X272002880Y-87394620D02*
X311878246Y-87394620D01*
%TO.N,C6*%
X352874021Y-95676521D02*
X350797500Y-93600000D01*
X306297500Y-93600000D02*
X317442252Y-93600000D01*
X352874021Y-108523479D02*
X352874021Y-95676521D01*
X350797500Y-110600000D02*
X352874021Y-108523479D01*
X321042960Y-111702210D02*
X324677500Y-115336750D01*
X321042960Y-97200708D02*
X321042960Y-111702210D01*
X317442252Y-93600000D02*
X321042960Y-97200708D01*
%TD*%
M02*
